<svg width="12" height="15" viewBox="0 0 12 15" fill="none" xmlns="http://www.w3.org/2000/svg">
<path d="M5.54107 0C2.48566 0 0 2.48566 0 5.54107C0 6.54694 0.451108 7.62875 0.470013 7.67438C0.61571 8.02021 0.903194 8.55737 1.1105 8.87223L4.90971 14.6287C5.06519 14.8647 5.29531 15 5.54107 15C5.78683 15 6.01695 14.8647 6.17242 14.6291L9.97197 8.87223C10.1796 8.55737 10.4668 8.02021 10.6124 7.67438C10.6314 7.62907 11.0821 6.54726 11.0821 5.54107C11.0821 2.48566 8.59648 0 5.54107 0ZM10.0114 7.42145C9.88136 7.73142 9.61375 8.23109 9.42764 8.51336L5.6281 14.2702C5.55313 14.384 5.52933 14.384 5.45437 14.2702L1.65482 8.51336C1.46871 8.23109 1.20111 7.73109 1.07106 7.42112C1.06551 7.40776 0.65189 6.41199 0.65189 5.54107C0.65189 2.84518 2.84518 0.65189 5.54107 0.65189C8.23696 0.65189 10.4302 2.84518 10.4302 5.54107C10.4302 6.4133 10.0156 7.41167 10.0114 7.42145Z" fill="white"/>
<path d="M5.54093 2.60797C3.92326 2.60797 2.60742 3.92414 2.60742 5.54148C2.60742 7.15882 3.92326 8.47499 5.54093 8.47499C7.1586 8.47499 8.47444 7.15882 8.47444 5.54148C8.47444 3.92414 7.1586 2.60797 5.54093 2.60797ZM5.54093 7.82309C4.28311 7.82309 3.25931 6.79963 3.25931 5.54148C3.25931 4.28333 4.28311 3.25986 5.54093 3.25986C6.79875 3.25986 7.82255 4.28333 7.82255 5.54148C7.82255 6.79963 6.79875 7.82309 5.54093 7.82309Z" fill="white"/>
</svg>
