<svg xmlns="http://www.w3.org/2000/svg" viewBox="0 0 20 18.46"><defs><style>.cls-1{fill:#fff;}</style></defs><title>icon_message_1</title><g id="Calque_2" data-name="Calque 2"><g id="message"><path class="cls-1" d="M1.5,0A1.51,1.51,0,0,0,0,1.5V13a.5.5,0,0,0,.81.39L4,10.8l.73-.58L5,10h7.5A1.51,1.51,0,0,0,14,8.5V.5a.51.51,0,0,0-.5-.5ZM13,8a1,1,0,0,1-1,1H5a1,1,0,0,0-.45.2L4,9.64,1,12V2A1,1,0,0,1,2,1H12.5a.51.51,0,0,1,.5.5Z"/><path class="cls-1" d="M18.5,5h-3a.5.5,0,0,0,0,1H18a1,1,0,0,1,1,1V17l-3-2.36-.55-.43A1,1,0,0,0,15,14H8a1,1,0,0,1-1-1V11.5a.5.5,0,0,0-1,0v2A1.51,1.51,0,0,0,7.5,15H15l.27.22.73.58,3.19,2.55A.5.5,0,0,0,20,18V6.5A1.51,1.51,0,0,0,18.5,5Z"/><rect class="cls-1" x="4" y="3" width="7" height="1" rx="0.5"/><rect class="cls-1" x="4" y="6" width="7" height="1" rx="0.5"/></g></g></svg>