<svg xmlns="http://www.w3.org/2000/svg" viewBox="0 0 12 20"><defs><style>.cls-1{fill:#ffffff;}</style></defs><title>icon_expiration</title><g id="Calque_2" data-name="Calque 2"><path class="cls-1" d="M12,.5a.51.51,0,0,0-.5-.5H.5A.51.51,0,0,0,0,.5V1H12Z"/><path class="cls-1" d="M0,19.5a.5.5,0,0,0,.5.5h11a.5.5,0,0,0,.5-.5V19H0Z"/><path class="cls-1" d="M0,19H1V15c0-.81,3-3.62,4.07-4.63A.5.5,0,0,0,5.24,10h0a.5.5,0,0,0-.17-.37C4,8.62,1,5.81,1,5V1H0V4c0,2,0,2,4,6H4c-4,4-4,4-4,6Z"/><path class="cls-1" d="M8,10H8c4-4,4-4,4-6V1H11V5c0,.81-3,3.62-4.07,4.63a.5.5,0,0,0-.17.37h0a.5.5,0,0,0,.17.37C8,11.38,11,14.19,11,15v4h1V16C12,14,12,14,8,10Z"/></g></svg>