<svg width="30" height="24" viewBox="0 0 30 24" fill="none" xmlns="http://www.w3.org/2000/svg">
<g clip-path="url(#clip0_881_5112)">
<path d="M0.75 3.74999H18.105C18.2777 4.38552 18.6548 4.94656 19.1779 5.34655C19.7011 5.74653 20.3414 5.96324 21 5.96324C21.6586 5.96324 22.2989 5.74653 22.8221 5.34655C23.3452 4.94656 23.7223 4.38552 23.895 3.74999H29.25C29.4489 3.74999 29.6397 3.67098 29.7803 3.53032C29.921 3.38967 30 3.19891 30 2.99999C30 2.80108 29.921 2.61032 29.7803 2.46966C29.6397 2.32901 29.4489 2.24999 29.25 2.24999H23.895C23.7223 1.61447 23.3452 1.05343 22.8221 0.653442C22.2989 0.253454 21.6586 0.0367432 21 0.0367432C20.3414 0.0367432 19.7011 0.253454 19.1779 0.653442C18.6548 1.05343 18.2777 1.61447 18.105 2.24999H0.75C0.551088 2.24999 0.360322 2.32901 0.21967 2.46966C0.0790176 2.61032 0 2.80108 0 2.99999C0 3.19891 0.0790176 3.38967 0.21967 3.53032C0.360322 3.67098 0.551088 3.74999 0.75 3.74999ZM19.71 2.24999C19.8428 2.02616 20.0316 1.84074 20.2578 1.71195C20.4839 1.58316 20.7397 1.51543 21 1.51543C21.2603 1.51543 21.5161 1.58316 21.7422 1.71195C21.9684 1.84074 22.1572 2.02616 22.29 2.24999C22.4217 2.47802 22.491 2.73669 22.491 2.99999C22.491 3.2633 22.4217 3.52197 22.29 3.74999C22.1572 3.97383 21.9684 4.15925 21.7422 4.28804C21.5161 4.41683 21.2603 4.48455 21 4.48455C20.7397 4.48455 20.4839 4.41683 20.2578 4.28804C20.0316 4.15925 19.8428 3.97383 19.71 3.74999C19.5783 3.52197 19.509 3.2633 19.509 2.99999C19.509 2.73669 19.5783 2.47802 19.71 2.24999Z" fill="white"/>
<path d="M29.25 20.25H19.395C19.2223 19.6145 18.8452 19.0534 18.3221 18.6534C17.7989 18.2535 17.1586 18.0367 16.5 18.0367C15.8414 18.0367 15.2011 18.2535 14.6779 18.6534C14.1548 19.0534 13.7777 19.6145 13.605 20.25H0.75C0.551088 20.25 0.360322 20.329 0.21967 20.4697C0.0790176 20.6103 0 20.8011 0 21C0 21.1989 0.0790176 21.3897 0.21967 21.5303C0.360322 21.671 0.551088 21.75 0.75 21.75H13.605C13.7777 22.3855 14.1548 22.9466 14.6779 23.3465C15.2011 23.7465 15.8414 23.9632 16.5 23.9632C17.1586 23.9632 17.7989 23.7465 18.3221 23.3465C18.8452 22.9466 19.2223 22.3855 19.395 21.75H29.25C29.4489 21.75 29.6397 21.671 29.7803 21.5303C29.921 21.3897 30 21.1989 30 21C30 20.8011 29.921 20.6103 29.7803 20.4697C29.6397 20.329 29.4489 20.25 29.25 20.25ZM16.5 22.5C16.2382 22.4984 15.9814 22.4284 15.7551 22.2968C15.5288 22.1652 15.3409 21.9767 15.21 21.75C15.0783 21.522 15.009 21.2633 15.009 21C15.009 20.7367 15.0783 20.478 15.21 20.25C15.3428 20.0262 15.5316 19.8407 15.7578 19.7119C15.9839 19.5832 16.2397 19.5154 16.5 19.5154C16.7603 19.5154 17.0161 19.5832 17.2422 19.7119C17.4684 19.8407 17.6572 20.0262 17.79 20.25C17.9217 20.478 17.991 20.7367 17.991 21C17.991 21.2633 17.9217 21.522 17.79 21.75C17.6591 21.9767 17.4712 22.1652 17.2449 22.2968C17.0186 22.4284 16.7618 22.4984 16.5 22.5Z" fill="white"/>
<path d="M29.25 11.25H10.395C10.2223 10.6145 9.84525 10.0534 9.32205 9.65344C8.79886 9.25345 8.15858 9.03674 7.5 9.03674C6.84142 9.03674 6.20114 9.25345 5.67795 9.65344C5.15475 10.0534 4.77771 10.6145 4.605 11.25H0.75C0.551088 11.25 0.360322 11.329 0.21967 11.4697C0.0790176 11.6103 0 11.8011 0 12C0 12.1989 0.0790176 12.3897 0.21967 12.5303C0.360322 12.671 0.551088 12.75 0.75 12.75H4.605C4.77771 13.3855 5.15475 13.9466 5.67795 14.3465C6.20114 14.7465 6.84142 14.9632 7.5 14.9632C8.15858 14.9632 8.79886 14.7465 9.32205 14.3465C9.84525 13.9466 10.2223 13.3855 10.395 12.75H29.25C29.4489 12.75 29.6397 12.671 29.7803 12.5303C29.921 12.3897 30 12.1989 30 12C30 11.8011 29.921 11.6103 29.7803 11.4697C29.6397 11.329 29.4489 11.25 29.25 11.25ZM7.5 13.5C7.23823 13.4984 6.98143 13.4284 6.75512 13.2968C6.52882 13.1652 6.34088 12.9767 6.21 12.75C6.07835 12.522 6.00904 12.2633 6.00904 12C6.00904 11.7367 6.07835 11.478 6.21 11.25C6.34281 11.0262 6.53159 10.8407 6.75776 10.7119C6.98393 10.5832 7.23973 10.5154 7.5 10.5154C7.76027 10.5154 8.01607 10.5832 8.24224 10.7119C8.46841 10.8407 8.65718 11.0262 8.79 11.25C8.92165 11.478 8.99096 11.7367 8.99096 12C8.99096 12.2633 8.92165 12.522 8.79 12.75C8.65912 12.9767 8.47118 13.1652 8.24488 13.2968C8.01857 13.4284 7.76177 13.4984 7.5 13.5Z" fill="white"/>
</g>
<defs>
<clipPath id="clip0_881_5112">
<rect width="30" height="24" fill="white"/>
</clipPath>
</defs>
</svg>
