<svg xmlns="http://www.w3.org/2000/svg" viewBox="0 0 12 20"><defs><style>.cls-1{fill:#ff5640;}</style></defs><title>icon_vote_fill_orange</title><g id="Calque_2" data-name="Calque 2"><g id="Calque_17" data-name="Calque 17"><path class="cls-1" d="M11,5,6.71.71,6.13.13,6,0,5.58.42,5.29.71,5,1,0,6H3v5H9V6h3ZM8,5v5H4V5H2.41L6,1.42,9.59,5Z"/><rect class="cls-1" x="8" y="13" width="1" height="4"/><rect class="cls-1" x="3" y="13" width="1" height="4"/><rect class="cls-1" x="5.5" y="15" width="1" height="5"/><rect class="cls-1" x="3" y="18" width="1" height="1"/><rect class="cls-1" x="8" y="18" width="1" height="1"/><polygon class="cls-1" points="11 5 11 6 9 6 9 10.38 3 10.38 3 6 2 6 2 4 5 1 5.29 0.71 5.58 0.42 5.87 0.13 6.13 0.13 6.71 0.71 11 5"/></g></g></svg>