<svg xmlns="http://www.w3.org/2000/svg" viewBox="0 0 14 18"><title>icon_signaler</title><g id="Calque_2" data-name="Calque 2"><g id="signaler"><path d="M13,0V.85A7.47,7.47,0,0,0,10.05.23l-.48,0A7.5,7.5,0,0,0,6.83,1L6.66,1A6.49,6.49,0,0,1,1,1,5.69,5.69,0,0,1,0,.4V11.24a7.34,7.34,0,0,0,1,.53,7.52,7.52,0,0,0,3.42.58,7.3,7.3,0,0,0,2.73-.7l.17-.08a6.5,6.5,0,0,1,5.68,0V18h1V0Zm0,2.79v7.64a7.51,7.51,0,0,0-6.17.1l-.17.08a6.49,6.49,0,0,1-5.66,0V2.19a7.52,7.52,0,0,0,3.42.58,7.3,7.3,0,0,0,2.73-.7L7.32,2A6.5,6.5,0,0,1,13,2Z"/></g></g></svg>