<svg xmlns="http://www.w3.org/2000/svg" viewBox="0 0 12 20"><title>icon_vote_2</title><g id="Calque_2" data-name="Calque 2"><g id="Calque_17" data-name="Calque 17"><path d="M10.59,6H12L11,5,6.71.71h0L6,0,5.58.42,5.29.71h0L5,1,1,5,0,6H3v4H3v1H9V10H9V6ZM8,10H4V5H2.41L6,1.42H6L9.59,5H8v5Z"/><rect x="8" y="13" width="1" height="4"/><rect x="3" y="13" width="1" height="4"/><rect x="5.5" y="15" width="1" height="5"/><rect x="3" y="18" width="1" height="1"/><rect x="8" y="18" width="1" height="1"/></g></g></svg>