<svg xmlns="http://www.w3.org/2000/svg" viewBox="0 0 20.25 20.25"><defs><style>.cls-1,.cls-2{fill:#fff;}.cls-1{stroke:#fff;stroke-miterlimit:10;stroke-width:0.25px;}</style></defs><title>icon_parametres_1</title><g id="Calque_2" data-name="Calque 2"><g id="parametres"><g id="Expanded"><path class="cls-1" d="M11,20.13H9.29A1.26,1.26,0,0,1,8,18.88V17.32a7,7,0,0,1-1.53-.63l-1.1,1.09a1.27,1.27,0,0,1-1.77,0L2.46,16.61a1.27,1.27,0,0,1,0-1.77l1.1-1.1a7,7,0,0,1-.63-1.53H1.38A1.25,1.25,0,0,1,.13,11V9.29A1.25,1.25,0,0,1,1.38,8H2.93a7.26,7.26,0,0,1,.63-1.53L2.47,5.41a1.25,1.25,0,0,1,0-1.77L3.64,2.46a1.29,1.29,0,0,1,1.77,0l1.1,1.1A7.26,7.26,0,0,1,8,2.93V1.38A1.25,1.25,0,0,1,9.29.13H11a1.25,1.25,0,0,1,1.25,1.25V2.93a7,7,0,0,1,1.53.63l1.1-1.1a1.29,1.29,0,0,1,1.77,0l1.18,1.18a1.27,1.27,0,0,1,0,1.77l-1.1,1.1A7,7,0,0,1,17.32,8h1.56a1.26,1.26,0,0,1,1.25,1.25V11a1.26,1.26,0,0,1-.37.88,1.23,1.23,0,0,1-.88.37H17.32a7,7,0,0,1-.63,1.53l1.09,1.1a1.25,1.25,0,0,1,0,1.77l-1.17,1.18a1.29,1.29,0,0,1-1.77,0l-1.1-1.1a7,7,0,0,1-1.53.63v1.56A1.26,1.26,0,0,1,11,20.13ZM6.44,15.75a.46.46,0,0,1,.22.06,6.59,6.59,0,0,0,1.9.79.42.42,0,0,1,.32.4v1.88a.41.41,0,0,0,.41.41H11a.42.42,0,0,0,.42-.41V17a.41.41,0,0,1,.31-.4,6.59,6.59,0,0,0,1.9-.79.42.42,0,0,1,.51.06l1.33,1.33a.44.44,0,0,0,.59,0L17.2,16a.42.42,0,0,0,0-.59L15.87,14.1a.42.42,0,0,1-.06-.51,6.59,6.59,0,0,0,.79-1.9.42.42,0,0,1,.4-.32h1.88a.41.41,0,0,0,.41-.41V9.29a.42.42,0,0,0-.41-.42H17a.41.41,0,0,1-.4-.31,6.59,6.59,0,0,0-.79-1.9.44.44,0,0,1,.06-.52L17.2,4.82a.45.45,0,0,0,.12-.29.47.47,0,0,0-.12-.3L16,3.05a.44.44,0,0,0-.59,0L14.1,4.38a.42.42,0,0,1-.51.06,6.59,6.59,0,0,0-1.9-.79.41.41,0,0,1-.31-.4V1.38A.42.42,0,0,0,11,1H9.29a.41.41,0,0,0-.41.42V3.25a.42.42,0,0,1-.32.4,6.59,6.59,0,0,0-1.9.79.42.42,0,0,1-.51-.06L4.82,3.05a.44.44,0,0,0-.59,0L3.05,4.23a.42.42,0,0,0,0,.59L4.38,6.15a.42.42,0,0,1,.06.51,6.59,6.59,0,0,0-.79,1.9.42.42,0,0,1-.4.32H1.38a.41.41,0,0,0-.3.12A.38.38,0,0,0,1,9.29V11a.41.41,0,0,0,.42.41H3.25a.42.42,0,0,1,.4.32,6.59,6.59,0,0,0,.79,1.9.42.42,0,0,1-.06.51L3.05,15.43a.45.45,0,0,0-.12.29.47.47,0,0,0,.12.3L4.23,17.2a.44.44,0,0,0,.59,0l1.33-1.33A.4.4,0,0,1,6.44,15.75Z"/></g><path class="cls-2" d="M10.13,5.13a5,5,0,1,0,5,5A5,5,0,0,0,10.13,5.13Zm0,9a4,4,0,1,1,4-4A4,4,0,0,1,10.13,14.13Z"/></g></g></svg>