<svg id="SvgjsSvg1001" width="288" height="288" xmlns="http://www.w3.org/2000/svg" version="1.1" xmlns:xlink="http://www.w3.org/1999/xlink" xmlns:svgjs="http://svgjs.com/svgjs"><defs id="SvgjsDefs1002"></defs><g id="SvgjsG1008"><svg xmlns="http://www.w3.org/2000/svg" viewBox="0 0 20.09 20.09" width="288" height="288"><g data-name="Calque 2" fill="#000000" class="color000 svgShape"><path d="M19.09,0H10.61A1,1,0,0,0,9.9.29L.29,9.9a1,1,0,0,0,0,1.42L8.77,19.8a1,1,0,0,0,1.42,0l9.61-9.61a1,1,0,0,0,.29-.71V1A1,1,0,0,0,19.09,0ZM9.84,18.74a.51.51,0,0,1-.71,0L1.35,11a.47.47,0,0,1,0-.69l9.14-9.15h8a.5.5,0,0,1,.5.5v8" fill="#000000" class="color000 svgShape"></path><path d="M12.73,4.54a2,2,0,1,0,2.82,0A2,2,0,0,0,12.73,4.54Zm2.12,2.12a1,1,0,1,1,0-1.42A1,1,0,0,1,14.85,6.66Z" fill="#000000" class="color000 svgShape"></path><path fill="#000000" d="M19.09,0H10.61A1,1,0,0,0,9.9.29L.29,9.9a1,1,0,0,0,0,1.42L8.77,19.8a1,1,0,0,0,1.42,0l9.61-9.61a1,1,0,0,0,.29-.71V1A1,1,0,0,0,19.09,0ZM9.84,18.74a.51.51,0,0,1-.71,0L1.35,11a.47.47,0,0,1,0-.69l9.14-9.15h8a.5.5,0,0,1,.5.5v8" class="colorfff svgShape"></path><path fill="#000000" d="M12.73,4.54a2,2,0,1,0,2.82,0A2,2,0,0,0,12.73,4.54Zm2.12,2.12a1,1,0,1,1,0-1.42A1,1,0,0,1,14.85,6.66Z" class="colorfff svgShape"></path></g></svg></g></svg>