<svg id="SvgjsSvg1020" width="288" height="288" xmlns="http://www.w3.org/2000/svg" version="1.1" xmlns:xlink="http://www.w3.org/1999/xlink" xmlns:svgjs="http://svgjs.com/svgjs"><defs id="SvgjsDefs1021"></defs><g id="SvgjsG1022"><svg xmlns="http://www.w3.org/2000/svg" viewBox="0 0 20 18" width="288" height="288"><path fill="#000000" d="M15.49.09A5.47,5.47,0,0,0,10,2.35,5.51,5.51,0,0,0,4,.2,5.64,5.64,0,0,0,0,5.85c.07,3.33,1.25,5.41,9.12,11.84a1.41,1.41,0,0,0,1.76,0c7.86-6.41,9-8.5,9.12-11.82A5.66,5.66,0,0,0,15.49.09Zm-4.7,16.38A5.19,5.19,0,0,1,10,17a9.1,9.1,0,0,1-.79-.53,41.5,41.5,0,0,1-6.69-6.29A6.85,6.85,0,0,1,1,5.56,4.49,4.49,0,0,1,9.44,3.35C9.8,4,9.82,4,10,4s.2,0,.56-.67A4.5,4.5,0,0,1,19,5.53a6.87,6.87,0,0,1-1.52,4.65A41.5,41.5,0,0,1,10.79,16.47Z" data-name="Calque 2" class="colorfff svgShape"></path></svg></g></svg>