<svg xmlns="http://www.w3.org/2000/svg" viewBox="0 0 20 18.81"><defs><style>.cls-1{fill:#ff5640;}</style></defs><title>icon_images</title><g id="Calque_2" data-name="Calque 2"><g id="images"><path class="cls-1" d="M8,2.5A1.75,1.75,0,1,0,9.75,4.25,1.75,1.75,0,0,0,8,2.5ZM8,5.17a.92.92,0,1,1,.92-.92A.92.92,0,0,1,8,5.17Z"/><path class="cls-1" d="M18.25,0H4.75A1.76,1.76,0,0,0,3,1.75v9.5A1.76,1.76,0,0,0,4.75,13h13.5A1.76,1.76,0,0,0,20,11.25V1.75A1.76,1.76,0,0,0,18.25,0ZM19,11a1,1,0,0,1-1,1H5.17a1.3,1.3,0,0,1-.65-.2h0L7.77,8.56a.71.71,0,0,1,1.08,0L10,9.73a.53.53,0,0,0,.87,0c.34-.37,2.57-3.12,3.05-3.69s.85-.56,1.34,0c.31.35,3.74,4.43,3.74,4.43Zm0-1.9L15.65,5.21a1.28,1.28,0,0,0-2.12,0C12.68,6.19,10.39,9,10.39,9a12.73,12.73,0,0,1-1-1,1.42,1.42,0,0,0-2.2,0c-.46.44-2.82,2.78-3.16,3.12A.36.36,0,0,1,4,11V2A1.16,1.16,0,0,1,5.17,1H18a1,1,0,0,1,1,1Z"/><path class="cls-1" d="M16.9,14a.5.5,0,0,0-.61.35L16,15.56,15.58,17a1,1,0,0,1-1.23.71L2,14.4a1.17,1.17,0,0,1-.87-1.27l.39-1.45,1.09-4a.5.5,0,0,0-1-.26L.51,11.42.06,13.11A1.75,1.75,0,0,0,1.3,15.25l13,3.5a1.76,1.76,0,0,0,2.14-1.24l.45-1.69.32-1.19A.48.48,0,0,0,16.9,14Z"/></g></g></svg>