<svg xmlns="http://www.w3.org/2000/svg" viewBox="0 0 14.78 20"><title>icon_localisation</title><g id="Calque_2" data-name="Calque 2"><g id="localisation"><path d="M7.39,0A7.39,7.39,0,0,0,0,7.39a8.33,8.33,0,0,0,.63,2.84,11.16,11.16,0,0,0,.85,1.6L6.55,19.5a1,1,0,0,0,.84.5,1,1,0,0,0,.84-.49l5.07-7.68a12.25,12.25,0,0,0,.85-1.6,8.33,8.33,0,0,0,.63-2.84A7.4,7.4,0,0,0,7.39,0Zm6,9.9a10.69,10.69,0,0,1-.78,1.45L7.5,19c-.1.15-.13.15-.23,0L2.21,11.35a10.23,10.23,0,0,1-.78-1.46,7.54,7.54,0,0,1-.56-2.5,6.52,6.52,0,0,1,13,0A8,8,0,0,1,13.35,9.9Z"/><path d="M7.39,3.48A3.91,3.91,0,1,0,11.3,7.39,3.91,3.91,0,0,0,7.39,3.48Zm0,7a3,3,0,1,1,3-3A3,3,0,0,1,7.39,10.43Z"/></g></g></svg>