<svg xmlns="http://www.w3.org/2000/svg" viewBox="0 0 300 300"><defs><style>.cls-1{fill:#ff5640;}.cls-2{fill:#ff5944;}.cls-3{fill:#ff5d47;}.cls-4{fill:#ff604b;}.cls-5{fill:#ff634f;}.cls-6{fill:#ff6753;}.cls-7{fill:#ff6a56;}.cls-8{fill:#ff6d5a;}.cls-9{fill:#ff715e;}.cls-10{fill:#ff7462;}.cls-11{fill:#ff7765;}.cls-12{fill:#ff7a69;}.cls-13{fill:#ff7e6d;}.cls-14{fill:#ff8171;}.cls-15{fill:#ff8474;}.cls-16{fill:#ff8878;}.cls-17{fill:#ff8b7c;}.cls-18{fill:#ff8e80;}.cls-19{fill:#ff9283;}.cls-20{fill:#ff9587;}.cls-21{fill:#ff988b;}.cls-22{fill:#ff9c8f;}.cls-23{fill:#ff9f92;}.cls-24{fill:#ffa296;}.cls-25{fill:#ffa69a;}.cls-26{fill:#ffa99e;}.cls-27{fill:#ffaca1;}.cls-28{fill:#ffafa5;}.cls-29{fill:#ffb3a9;}.cls-30{fill:#ffb6ad;}.cls-31{fill:#ffb9b0;}.cls-32{fill:#ffbdb4;}.cls-33{fill:#ffc0b8;}.cls-34{fill:#ffc3bc;}.cls-35{fill:#ffc7bf;}.cls-36{fill:#ffcac3;}.cls-37{fill:#ffcdc7;}.cls-38{fill:#ffd1cb;}.cls-39{fill:#ffd4ce;}.cls-40{fill:#ffd7d2;}.cls-41{fill:#ffdbd6;}.cls-42{fill:#ffdeda;}.cls-43{fill:#ffe1dd;}.cls-44{fill:#ffe4e1;}.cls-45{fill:#ffe8e5;}.cls-46{fill:#ffebe9;}.cls-47{fill:#ffeeec;}.cls-48{fill:#fff2f0;}.cls-49{fill:#fff5f4;}.cls-50{fill:#fff8f8;}.cls-51{fill:#fffcfb;}.cls-52{fill:#fff;}</style></defs><title>favicon_1</title><g id="Calque_2" data-name="Calque 2"><g id="Calque_1-2" data-name="Calque 1"><rect class="cls-1" width="300" height="300" rx="50"/><path class="cls-1" d="M146.54,90.18h-21l-5.41,27.52h20.3c11.28,0,17.6-6.32,17.6-16.24C158.05,94.69,153.76,90.18,146.54,90.18Zm29.78,41.73c9.47,6.77,15.11,18,15.11,30.9a38.57,38.57,0,0,1-.9,8.57c-5,26.62-28.2,43.54-58.88,43.54H61.5L93.08,57h64.51c24.82,0,40.83,14.21,40.83,35.41a44,44,0,0,1-.9,9.25C195,114.09,187.6,124.46,176.32,131.91Zm-25.49,28.87c0-7-4.06-11.5-12-11.5H113.61l-6.09,30.9H132.1c9.7,0,16.47-5.41,18.28-15.34A25.35,25.35,0,0,0,150.83,160.78Z"/><path class="cls-2" d="M147.13,90.65h-21l-5.41,27.52H141c11.28,0,17.59-6.32,17.59-16.24C158.63,95.16,154.35,90.65,147.13,90.65Zm29.78,41.73c9.47,6.77,15.11,18.05,15.11,30.9a38.72,38.72,0,0,1-.9,8.58c-5,26.61-28.2,43.53-58.88,43.53H62.09L93.67,57.49h64.51C183,57.49,199,71.7,199,92.91a43.93,43.93,0,0,1-.9,9.24C195.63,114.56,188.19,124.94,176.91,132.38Zm-25.49,28.87c0-7-4.06-11.5-12-11.5H114.2l-6.09,30.9h24.58c9.7,0,16.47-5.41,18.28-15.34A25.35,25.35,0,0,0,151.42,161.25Z"/><path class="cls-3" d="M147.72,91.12h-21l-5.41,27.52h20.3c11.28,0,17.59-6.31,17.59-16.24C159.22,95.63,154.94,91.12,147.72,91.12Zm29.78,41.73c9.47,6.77,15.11,18.05,15.11,30.91a38.69,38.69,0,0,1-.9,8.57c-5,26.61-28.2,43.53-58.88,43.53H62.68L94.26,58h64.51c24.82,0,40.83,14.21,40.83,35.42a44.08,44.08,0,0,1-.9,9.25C196.22,115,188.77,125.41,177.5,132.85ZM152,161.73c0-7-4.06-11.51-12-11.51H114.79l-6.09,30.9h24.58c9.7,0,16.47-5.41,18.28-15.33A25.61,25.61,0,0,0,152,161.73Z"/><path class="cls-4" d="M148.31,91.59h-21l-5.41,27.52h20.3c11.28,0,17.59-6.31,17.59-16.24C159.81,96.1,155.53,91.59,148.31,91.59Zm29.78,41.73c9.47,6.77,15.11,18.05,15.11,30.91a38.63,38.63,0,0,1-.9,8.57c-5,26.62-28.2,43.53-58.88,43.53H63.27L94.85,58.43h64.51c24.82,0,40.83,14.22,40.83,35.42a44.08,44.08,0,0,1-.9,9.25C196.81,115.5,189.36,125.88,178.09,133.32ZM152.6,162.2c0-7-4.06-11.51-12-11.51H115.38l-6.09,30.91h24.58c9.7,0,16.47-5.42,18.28-15.34A25.61,25.61,0,0,0,152.6,162.2Z"/><path class="cls-5" d="M148.9,92.06h-21l-5.41,27.52h20.3c11.28,0,17.59-6.31,17.59-16.24C160.4,96.58,156.12,92.06,148.9,92.06Zm29.78,41.74c9.47,6.76,15.11,18,15.11,30.9a38.57,38.57,0,0,1-.9,8.57c-5,26.62-28.2,43.54-58.88,43.54H63.86L95.44,58.91H160c24.82,0,40.83,14.21,40.83,35.41a44.08,44.08,0,0,1-.9,9.25C197.4,116,190,126.35,178.68,133.8Zm-25.49,28.87c0-7-4.06-11.51-12-11.51H116l-6.09,30.91h24.58c9.7,0,16.47-5.42,18.27-15.34A24.39,24.39,0,0,0,153.19,162.67Z"/><path class="cls-6" d="M149.49,92.54h-21l-5.41,27.52h20.3c11.28,0,17.59-6.32,17.59-16.24C161,97.05,156.71,92.54,149.49,92.54Zm29.77,41.73c9.48,6.77,15.12,18,15.12,30.9a38.57,38.57,0,0,1-.9,8.57c-5,26.62-28.2,43.54-58.88,43.54H64.45L96,59.38h64.51c24.82,0,40.83,14.21,40.83,35.41a44,44,0,0,1-.9,9.25C198,116.45,190.54,126.82,179.26,134.27Zm-25.48,28.87c0-7-4.07-11.5-12-11.5H116.56l-6.09,30.9h24.58c9.7,0,16.47-5.41,18.27-15.34A24.39,24.39,0,0,0,153.78,163.14Z"/><path class="cls-7" d="M150.08,93h-21l-5.41,27.52H144c11.28,0,17.59-6.32,17.59-16.24C161.58,97.52,157.3,93,150.08,93Zm29.77,41.73c9.48,6.77,15.12,18,15.12,30.9a38.57,38.57,0,0,1-.9,8.57c-5,26.62-28.2,43.54-58.88,43.54H65L96.62,59.85h64.51C186,59.85,202,74.06,202,95.26a44,44,0,0,1-.9,9.25C198.58,116.92,191.13,127.3,179.85,134.74Zm-25.48,28.87c0-7-4.07-11.5-12-11.5H117.15L111.06,183h24.58c9.7,0,16.47-5.41,18.27-15.34A24.27,24.27,0,0,0,154.37,163.61Z"/><path class="cls-8" d="M150.67,93.48h-21L124.28,121h20.3c11.28,0,17.59-6.32,17.59-16.24C162.17,98,157.89,93.48,150.67,93.48Zm29.77,41.73c9.48,6.77,15.12,18,15.12,30.9a38.72,38.72,0,0,1-.9,8.58c-5,26.61-28.2,43.53-58.88,43.53H65.63L97.21,60.32h64.51c24.81,0,40.83,14.21,40.83,35.42a43.93,43.93,0,0,1-.9,9.24C199.17,117.39,191.72,127.77,180.44,135.21ZM155,164.08c0-7-4.07-11.5-12-11.5H117.74l-6.09,30.9h24.58c9.7,0,16.47-5.41,18.27-15.34A24.27,24.27,0,0,0,155,164.08Z"/><path class="cls-9" d="M151.26,94h-21l-5.41,27.52h20.3c11.28,0,17.59-6.31,17.59-16.24C162.76,98.46,158.48,94,151.26,94ZM181,135.68c9.48,6.77,15.12,18,15.12,30.91a38.63,38.63,0,0,1-.9,8.57c-5,26.62-28.2,43.53-58.88,43.53H66.22L97.8,60.79h64.51c24.81,0,40.83,14.21,40.83,35.42a44.08,44.08,0,0,1-.9,9.25C199.76,117.86,192.31,128.24,181,135.68Zm-25.49,28.88c0-7-4.06-11.51-11.95-11.51H118.33L112.24,184h24.58c9.7,0,16.47-5.42,18.27-15.34A24.49,24.49,0,0,0,155.54,164.56Z"/><path class="cls-10" d="M151.85,94.42h-21l-5.41,27.52h20.3c11.28,0,17.59-6.31,17.59-16.24C163.35,98.94,159.07,94.42,151.85,94.42Zm29.77,41.73c9.48,6.77,15.12,18,15.12,30.91a38.57,38.57,0,0,1-.9,8.57c-5,26.62-28.2,43.54-58.88,43.54H66.81L98.39,61.27H162.9c24.81,0,40.83,14.21,40.83,35.41a44.08,44.08,0,0,1-.9,9.25C200.35,118.33,192.9,128.71,181.62,136.15ZM156.13,165c0-7-4.06-11.51-11.95-11.51H118.92l-6.1,30.91h24.59c9.7,0,16.47-5.42,18.27-15.34A24.49,24.49,0,0,0,156.13,165Z"/><path class="cls-11" d="M152.44,94.9h-21l-5.41,27.52h20.3c11.28,0,17.59-6.32,17.59-16.25C163.94,99.41,159.66,94.9,152.44,94.9Zm29.77,41.73c9.48,6.76,15.12,18,15.12,30.9a38.57,38.57,0,0,1-.9,8.57c-5,26.62-28.2,43.54-58.88,43.54H67.4L99,61.74h64.51c24.81,0,40.83,14.21,40.83,35.41a44.76,44.76,0,0,1-.9,9.25C200.94,118.81,193.49,129.18,182.21,136.63ZM156.72,165.5c0-7-4.06-11.5-11.95-11.5H119.5l-6.09,30.9H138c9.7,0,16.47-5.41,18.27-15.34A24.37,24.37,0,0,0,156.72,165.5Z"/><path class="cls-12" d="M153,95.37h-21l-5.41,27.52h20.3c11.28,0,17.59-6.32,17.59-16.24C164.53,99.88,160.25,95.37,153,95.37ZM182.8,137.1c9.48,6.77,15.12,18,15.12,30.9a38.57,38.57,0,0,1-.9,8.57c-5,26.62-28.2,43.54-58.88,43.54H68L99.57,62.21h64.51c24.81,0,40.83,14.21,40.83,35.41a44.7,44.7,0,0,1-.9,9.25C201.53,119.28,194.08,129.65,182.8,137.1ZM157.31,166c0-7-4.06-11.5-11.95-11.5H120.09L114,185.37h24.59c9.7,0,16.47-5.41,18.27-15.34A24.37,24.37,0,0,0,157.31,166Z"/><path class="cls-13" d="M153.62,95.84h-21l-5.41,27.52h20.3c11.28,0,17.59-6.32,17.59-16.24C165.12,100.35,160.84,95.84,153.62,95.84Zm29.77,41.73c9.48,6.77,15.12,18.05,15.12,30.9a38.72,38.72,0,0,1-.9,8.58c-5,26.61-28.2,43.53-58.88,43.53H68.58l31.58-157.9h64.51c24.81,0,40.83,14.21,40.83,35.42a44.6,44.6,0,0,1-.9,9.24C202.12,119.75,194.67,130.13,183.39,137.57ZM157.9,166.44c0-7-4.06-11.5-12-11.5H120.68l-6.09,30.9h24.59c9.7,0,16.47-5.41,18.27-15.34A24.26,24.26,0,0,0,157.9,166.44Z"/><path class="cls-14" d="M154.21,96.31h-21l-5.41,27.52h20.3c11.28,0,17.59-6.31,17.59-16.24C165.71,100.82,161.43,96.31,154.21,96.31ZM184,138c9.48,6.77,15.12,18.05,15.12,30.91a38.13,38.13,0,0,1-.91,8.57c-5,26.61-28.19,43.53-58.87,43.53H69.17l31.58-157.9h64.51c24.81,0,40.83,14.21,40.83,35.42a44.76,44.76,0,0,1-.9,9.25C202.71,120.22,195.26,130.6,184,138Zm-25.49,28.88c0-7-4.06-11.51-12-11.51H121.27l-6.09,30.9h24.59c9.7,0,16.47-5.41,18.27-15.33A24.49,24.49,0,0,0,158.49,166.92Z"/><path class="cls-15" d="M154.8,96.78h-21l-5.41,27.52h20.3c11.28,0,17.59-6.31,17.59-16.24C166.3,101.29,162,96.78,154.8,96.78Zm29.77,41.73c9.48,6.77,15.12,18.05,15.12,30.91a38.07,38.07,0,0,1-.91,8.57c-5,26.62-28.19,43.53-58.87,43.53H69.76l31.58-157.9h64.51c24.81,0,40.83,14.22,40.83,35.42a44.76,44.76,0,0,1-.9,9.25C203.29,120.69,195.85,131.07,184.57,138.51Zm-25.49,28.88c0-7-4.06-11.51-12-11.51H121.86l-6.09,30.91h24.59c9.7,0,16.47-5.42,18.27-15.34A24.49,24.49,0,0,0,159.08,167.39Z"/><path class="cls-16" d="M155.39,97.25h-21L129,124.77H149.3c11.27,0,17.59-6.31,17.59-16.24C166.89,101.77,162.61,97.25,155.39,97.25ZM185.16,139c9.48,6.76,15.12,18,15.12,30.9a38,38,0,0,1-.91,8.57c-5,26.62-28.19,43.54-58.87,43.54H70.35L101.93,64.1h64.51c24.81,0,40.83,14.21,40.83,35.41a44.76,44.76,0,0,1-.9,9.25C203.88,121.17,196.44,131.54,185.16,139Zm-25.49,28.87c0-7-4.06-11.51-11.95-11.51H122.45l-6.09,30.91H141c9.7,0,16.47-5.42,18.27-15.34A24.37,24.37,0,0,0,159.67,167.86Z"/><path class="cls-17" d="M156,97.73H135l-5.42,27.52h20.31c11.27,0,17.59-6.32,17.59-16.24C167.48,102.24,163.2,97.73,156,97.73Zm29.77,41.73c9.48,6.76,15.12,18,15.12,30.9a38,38,0,0,1-.91,8.57c-5,26.62-28.19,43.54-58.87,43.54H70.94l31.58-157.9H167c24.81,0,40.83,14.21,40.83,35.41a44.7,44.7,0,0,1-.9,9.25C204.47,121.64,197,132,185.75,139.46Zm-25.49,28.87c0-7-4.06-11.5-11.95-11.5H123L117,187.73h24.59c9.7,0,16.47-5.41,18.27-15.34A24.37,24.37,0,0,0,160.26,168.33Z"/><path class="cls-18" d="M156.57,98.2h-21l-5.42,27.52h20.31c11.27,0,17.59-6.32,17.59-16.24C168.07,102.71,163.79,98.2,156.57,98.2Zm29.77,41.73c9.48,6.77,15.12,18,15.12,30.9a38,38,0,0,1-.91,8.57c-5,26.62-28.19,43.54-58.87,43.54H71.53L103.11,65h64.51c24.81,0,40.83,14.21,40.83,35.41a44.7,44.7,0,0,1-.9,9.25C205.06,122.11,197.62,132.49,186.34,139.93ZM160.85,168.8c0-7-4.06-11.5-11.95-11.5H123.63l-6.09,30.9h24.59c9.7,0,16.47-5.41,18.27-15.34A24.26,24.26,0,0,0,160.85,168.8Z"/><path class="cls-19" d="M157.16,98.67h-21l-5.42,27.52h20.31c11.27,0,17.59-6.32,17.59-16.24C168.66,103.18,164.38,98.67,157.16,98.67Zm29.77,41.73c9.48,6.77,15.12,18,15.12,30.9a38.16,38.16,0,0,1-.91,8.58c-5,26.61-28.19,43.53-58.87,43.53H72.12L103.7,65.51h64.51C193,65.51,209,79.72,209,100.93a44.6,44.6,0,0,1-.9,9.24C205.65,122.58,198.21,133,186.93,140.4Zm-25.49,28.87c0-7-4.06-11.5-11.95-11.5H124.22l-6.09,30.9h24.59c9.7,0,16.47-5.41,18.27-15.34A24.26,24.26,0,0,0,161.44,169.27Z"/><path class="cls-20" d="M157.75,99.14h-21l-5.42,27.52h20.31c11.27,0,17.59-6.31,17.59-16.24C169.25,103.65,165,99.14,157.75,99.14Zm29.77,41.73c9.48,6.77,15.12,18,15.12,30.91a38.07,38.07,0,0,1-.91,8.57c-5,26.62-28.19,43.53-58.87,43.53H72.71L104.29,66H168.8c24.81,0,40.83,14.21,40.83,35.42a44.76,44.76,0,0,1-.9,9.25C206.24,123.05,198.8,133.43,187.52,140.87ZM162,169.75c0-7-4.06-11.51-11.95-11.51H124.81l-6.09,30.91h24.59c9.7,0,16.47-5.42,18.27-15.34A24.49,24.49,0,0,0,162,169.75Z"/><path class="cls-21" d="M158.34,99.61h-21l-5.42,27.52h20.31c11.27,0,17.59-6.31,17.59-16.24C169.84,104.13,165.55,99.61,158.34,99.61Zm29.77,41.73c9.48,6.77,15.11,18,15.11,30.91a38,38,0,0,1-.9,8.57c-5,26.62-28.19,43.54-58.87,43.54H73.3l31.58-157.9h64.51c24.81,0,40.83,14.21,40.83,35.41a44.76,44.76,0,0,1-.9,9.25C206.83,123.52,199.39,133.9,188.11,141.34Zm-25.49,28.88c0-7-4.06-11.51-12-11.51H125.4l-6.09,30.91H143.9c9.7,0,16.47-5.42,18.27-15.34A24.49,24.49,0,0,0,162.62,170.22Z"/><path class="cls-22" d="M158.93,100.09H138l-5.42,27.52h20.31c11.27,0,17.59-6.32,17.59-16.25C170.43,104.6,166.14,100.09,158.93,100.09Zm29.77,41.73c9.48,6.76,15.11,18,15.11,30.9a38,38,0,0,1-.9,8.57c-5,26.62-28.19,43.54-58.87,43.54H73.89l31.58-157.9H170c24.81,0,40.83,14.21,40.83,35.41a44.76,44.76,0,0,1-.9,9.25C207.42,124,200,134.37,188.7,141.82Zm-25.49,28.87c0-7-4.06-11.5-12-11.5H126l-6.09,30.9h24.59c9.7,0,16.47-5.41,18.27-15.34A24.37,24.37,0,0,0,163.21,170.69Z"/><path class="cls-23" d="M159.52,100.56h-21l-5.42,27.52h20.31c11.27,0,17.59-6.32,17.59-16.24C171,105.07,166.73,100.56,159.52,100.56Zm29.77,41.73c9.47,6.77,15.11,18,15.11,30.9a38,38,0,0,1-.9,8.57c-5,26.62-28.19,43.54-58.87,43.54H74.48L106.06,67.4h64.51c24.81,0,40.83,14.21,40.83,35.41a44.05,44.05,0,0,1-.91,9.25C208,124.47,200.57,134.84,189.29,142.29ZM163.8,171.16c0-7-4.06-11.5-12-11.5H126.58l-6.09,30.9h24.59c9.7,0,16.47-5.41,18.27-15.34A24.37,24.37,0,0,0,163.8,171.16Z"/><path class="cls-24" d="M160.11,101h-21l-5.42,27.52H154c11.27,0,17.59-6.32,17.59-16.24C171.61,105.54,167.32,101,160.11,101Zm29.77,41.73c9.47,6.77,15.11,18.05,15.11,30.9a38.13,38.13,0,0,1-.9,8.58c-5,26.61-28.2,43.53-58.87,43.53H75.06l31.58-157.9h64.52C196,67.87,212,82.08,212,103.28a44,44,0,0,1-.91,9.25C208.6,124.94,201.16,135.32,189.88,142.76Zm-25.49,28.87c0-7-4.06-11.5-11.95-11.5H127.17L121.08,191h24.59c9.7,0,16.47-5.41,18.27-15.34A25.35,25.35,0,0,0,164.39,171.63Z"/><path class="cls-25" d="M160.7,101.5h-21L134.3,129h20.31c11.27,0,17.59-6.32,17.59-16.24C172.2,106,167.91,101.5,160.7,101.5Zm29.77,41.73c9.47,6.77,15.11,18.05,15.11,30.91a38.1,38.1,0,0,1-.9,8.57c-5,26.61-28.2,43.53-58.87,43.53H75.65l31.58-157.9h64.52c24.81,0,40.83,14.21,40.83,35.42a44.12,44.12,0,0,1-.91,9.25C209.19,125.41,201.75,135.79,190.47,143.23ZM165,172.11c0-7-4.06-11.51-11.95-11.51H127.76l-6.09,30.9h24.59c9.7,0,16.47-5.41,18.27-15.33A25.61,25.61,0,0,0,165,172.11Z"/><path class="cls-26" d="M161.29,102h-21l-5.42,27.52h20.3c11.28,0,17.6-6.31,17.6-16.24C172.79,106.48,168.5,102,161.29,102Zm29.77,41.73c9.47,6.77,15.11,18.05,15.11,30.91a38,38,0,0,1-.9,8.57c-5,26.62-28.2,43.53-58.87,43.53H76.24l31.58-157.9h64.52c24.81,0,40.83,14.22,40.83,35.42a44.12,44.12,0,0,1-.91,9.25C209.78,125.88,202.34,136.26,191.06,143.7Zm-25.49,28.88c0-7-4.06-11.51-11.95-11.51H128.35L122.26,192h24.59c9.7,0,16.46-5.42,18.27-15.34A25.61,25.61,0,0,0,165.57,172.58Z"/><path class="cls-27" d="M161.87,102.44h-21L135.48,130h20.3c11.28,0,17.6-6.31,17.6-16.24C173.38,107,169.09,102.44,161.87,102.44Zm29.78,41.74c9.47,6.76,15.11,18,15.11,30.9a38,38,0,0,1-.9,8.57c-5,26.62-28.2,43.54-58.87,43.54H76.83l31.58-157.9h64.52c24.81,0,40.83,14.21,40.83,35.41a44.12,44.12,0,0,1-.91,9.25C210.37,126.36,202.93,136.73,191.65,144.18Zm-25.49,28.87c0-7-4.06-11.51-11.95-11.51H128.94l-6.09,30.91h24.59c9.7,0,16.46-5.42,18.27-15.34A25.48,25.48,0,0,0,166.16,173.05Z"/><path class="cls-28" d="M162.46,102.92h-21l-5.42,27.52h20.3c11.28,0,17.6-6.32,17.6-16.24C174,107.43,169.68,102.92,162.46,102.92Zm29.78,41.73c9.47,6.76,15.11,18,15.11,30.9a38,38,0,0,1-.9,8.57c-5,26.62-28.2,43.54-58.87,43.54H77.42L109,69.76h64.52c24.81,0,40.83,14.21,40.83,35.41a44.05,44.05,0,0,1-.91,9.25C211,126.83,203.52,137.2,192.24,144.65Zm-25.49,28.87c0-7-4.06-11.5-11.95-11.5H129.53l-6.09,30.9H148c9.7,0,16.46-5.41,18.27-15.34A25.48,25.48,0,0,0,166.75,173.52Z"/><path class="cls-29" d="M163.05,103.39h-21l-5.42,27.52H157c11.28,0,17.6-6.32,17.6-16.24C174.56,107.9,170.27,103.39,163.05,103.39Zm29.78,41.73c9.47,6.77,15.11,18,15.11,30.9a38,38,0,0,1-.9,8.57c-5,26.62-28.2,43.54-58.87,43.54H78l31.58-157.9h64.52c24.81,0,40.83,14.21,40.83,35.41a44.05,44.05,0,0,1-.91,9.25C211.55,127.3,204.11,137.68,192.83,145.12ZM167.34,174c0-7-4.06-11.5-12-11.5H130.12L124,193.39h24.59c9.7,0,16.46-5.41,18.27-15.34A25.35,25.35,0,0,0,167.34,174Z"/><path class="cls-30" d="M163.64,103.86h-21l-5.42,27.52h20.3c11.28,0,17.6-6.32,17.6-16.24C175.15,108.37,170.86,103.86,163.64,103.86Zm29.78,41.73c9.47,6.77,15.11,18,15.11,30.9a38.13,38.13,0,0,1-.9,8.58c-5,26.61-28.2,43.53-58.87,43.53H78.6L110.18,70.7H174.7c24.81,0,40.82,14.21,40.82,35.42a43.93,43.93,0,0,1-.9,9.24C212.14,127.77,204.7,138.15,193.42,145.59Zm-25.49,28.87c0-7-4.06-11.5-12-11.5H130.71l-6.09,30.9h24.59c9.7,0,16.46-5.41,18.27-15.34A25.35,25.35,0,0,0,167.93,174.46Z"/><path class="cls-31" d="M164.23,104.33h-21l-5.42,27.52h20.3c11.28,0,17.6-6.31,17.6-16.24C175.74,108.84,171.45,104.33,164.23,104.33ZM194,146.06c9.47,6.77,15.11,18.05,15.11,30.91a38,38,0,0,1-.9,8.57c-5,26.62-28.2,43.53-58.87,43.53H79.19l31.58-157.9h64.52c24.81,0,40.82,14.21,40.82,35.42a44.08,44.08,0,0,1-.9,9.25C212.73,128.24,205.29,138.62,194,146.06Zm-25.49,28.88c0-7-4.06-11.51-12-11.51H131.3l-6.09,30.9H149.8c9.7,0,16.46-5.41,18.27-15.33A25.61,25.61,0,0,0,168.52,174.94Z"/><path class="cls-32" d="M164.82,104.8h-21l-5.42,27.52h20.3c11.28,0,17.6-6.31,17.6-16.24C176.33,109.32,172,104.8,164.82,104.8Zm29.78,41.73c9.47,6.77,15.11,18.05,15.11,30.91a38,38,0,0,1-.9,8.57c-5,26.62-28.2,43.53-58.87,43.53H79.78l31.58-157.9h64.52c24.81,0,40.82,14.22,40.82,35.42a44.08,44.08,0,0,1-.9,9.25C213.32,128.71,205.88,139.09,194.6,146.53Zm-25.49,28.88c0-7-4.06-11.51-12-11.51H131.89l-6.09,30.91h24.59c9.7,0,16.46-5.42,18.27-15.34A25.61,25.61,0,0,0,169.11,175.41Z"/><path class="cls-33" d="M165.41,105.28h-21L139,132.8h20.3c11.28,0,17.6-6.32,17.6-16.25C176.92,109.79,172.63,105.28,165.41,105.28ZM195.19,147c9.47,6.76,15.11,18,15.11,30.9a38,38,0,0,1-.9,8.57c-5,26.62-28.2,43.54-58.87,43.54H80.37L112,72.12h64.52c24.81,0,40.82,14.21,40.82,35.41a44.08,44.08,0,0,1-.9,9.25C213.91,129.19,206.47,139.56,195.19,147ZM169.7,175.88c0-7-4.06-11.5-12-11.5H132.48l-6.09,30.9H151c9.7,0,16.46-5.41,18.27-15.34A25.48,25.48,0,0,0,169.7,175.88Z"/><path class="cls-34" d="M166,105.75H145l-5.42,27.52h20.3c11.28,0,17.6-6.32,17.6-16.24C177.51,110.26,173.22,105.75,166,105.75Zm29.78,41.73c9.47,6.77,15.11,18,15.11,30.9A38,38,0,0,1,210,187c-5,26.62-28.2,43.54-58.87,43.54H81l31.58-157.9h64.52c24.81,0,40.82,14.21,40.82,35.41a44,44,0,0,1-.9,9.25C214.5,129.66,207.06,140,195.78,147.48Zm-25.49,28.87c0-7-4.06-11.5-12-11.5H133.07L127,195.75h24.59c9.7,0,16.46-5.41,18.27-15.34A25.48,25.48,0,0,0,170.29,176.35Z"/><path class="cls-35" d="M166.59,106.22h-21l-5.42,27.52h20.3c11.28,0,17.6-6.32,17.6-16.24C178.1,110.73,173.81,106.22,166.59,106.22ZM196.37,148c9.47,6.77,15.11,18.05,15.11,30.9a38.13,38.13,0,0,1-.9,8.58c-5,26.61-28.2,43.53-58.87,43.53H81.55l31.58-157.9h64.52c24.81,0,40.82,14.21,40.82,35.41a44,44,0,0,1-.9,9.25C215.09,130.13,207.65,140.51,196.37,148Zm-25.49,28.87c0-7-4.06-11.5-12-11.5H133.66l-6.09,30.9h24.59c9.7,0,16.46-5.41,18.27-15.34A25.35,25.35,0,0,0,170.88,176.82Z"/><path class="cls-36" d="M167.18,106.69h-21l-5.41,27.52h20.3c11.28,0,17.6-6.32,17.6-16.24C178.69,111.2,174.4,106.69,167.18,106.69ZM197,148.42c9.47,6.77,15.11,18.05,15.11,30.91a38.1,38.1,0,0,1-.9,8.57c-5,26.61-28.2,43.53-58.87,43.53H82.14l31.58-157.9h64.52c24.81,0,40.82,14.21,40.82,35.42a44.08,44.08,0,0,1-.9,9.25C215.68,130.6,208.24,141,197,148.42Zm-25.49,28.87c0-7-4.06-11.5-12-11.5H134.25l-6.09,30.9h24.59c9.69,0,16.46-5.41,18.27-15.34A25.35,25.35,0,0,0,171.47,177.29Z"/><path class="cls-37" d="M167.77,107.16h-21l-5.41,27.52h20.3c11.28,0,17.6-6.31,17.6-16.24C179.28,111.67,175,107.16,167.77,107.16Zm29.78,41.73c9.47,6.77,15.11,18.05,15.11,30.91a38.63,38.63,0,0,1-.9,8.57c-5,26.62-28.2,43.53-58.87,43.53H82.73L114.31,74h64.52c24.81,0,40.82,14.22,40.82,35.42a44.08,44.08,0,0,1-.9,9.25C216.27,131.07,208.83,141.45,197.55,148.89Zm-25.49,28.88c0-7-4.06-11.51-12-11.51H134.84l-6.09,30.91h24.59c9.69,0,16.46-5.42,18.27-15.34A25.61,25.61,0,0,0,172.06,177.77Z"/><path class="cls-38" d="M168.36,107.63h-21L142,135.15h20.3c11.28,0,17.6-6.31,17.6-16.24C179.87,112.15,175.58,107.63,168.36,107.63Zm29.78,41.74c9.47,6.76,15.11,18,15.11,30.9a38.57,38.57,0,0,1-.9,8.57c-5,26.62-28.2,43.54-58.88,43.54H83.32L114.9,74.48h64.52c24.81,0,40.82,14.21,40.82,35.41a44.08,44.08,0,0,1-.9,9.25C216.86,131.55,209.42,141.92,198.14,149.37Zm-25.49,28.87c0-7-4.06-11.51-12-11.51H135.43l-6.09,30.91h24.59c9.69,0,16.46-5.42,18.27-15.34A25.48,25.48,0,0,0,172.65,178.24Z"/><path class="cls-39" d="M169,108.11H148l-5.41,27.52h20.3c11.28,0,17.6-6.32,17.6-16.24C180.46,112.62,176.17,108.11,169,108.11Zm29.78,41.73c9.47,6.76,15.11,18,15.11,30.9a38.57,38.57,0,0,1-.9,8.57c-5,26.62-28.2,43.54-58.88,43.54H83.91L115.49,75H180c24.82,0,40.83,14.21,40.83,35.41a44.08,44.08,0,0,1-.9,9.25C217.45,132,210,142.39,198.73,149.84Zm-25.49,28.87c0-7-4.06-11.5-12-11.5H136l-6.09,30.9h24.59c9.69,0,16.46-5.41,18.27-15.34A25.48,25.48,0,0,0,173.24,178.71Z"/><path class="cls-40" d="M169.54,108.58h-21l-5.41,27.52h20.3c11.28,0,17.6-6.32,17.6-16.24C181.05,113.09,176.76,108.58,169.54,108.58Zm29.78,41.73c9.47,6.77,15.11,18,15.11,30.9a38.57,38.57,0,0,1-.9,8.57c-5,26.62-28.2,43.54-58.88,43.54H84.5l31.58-157.9h64.51c24.82,0,40.83,14.21,40.83,35.41a44,44,0,0,1-.9,9.25C218,132.49,210.6,142.87,199.32,150.31Zm-25.49,28.87c0-7-4.06-11.5-12-11.5H136.61l-6.09,30.9h24.59c9.69,0,16.46-5.41,18.27-15.34A25.35,25.35,0,0,0,173.83,179.18Z"/><path class="cls-41" d="M170.13,109.05h-21l-5.41,27.52H164c11.28,0,17.6-6.32,17.6-16.24C181.64,113.56,177.35,109.05,170.13,109.05Zm29.78,41.73c9.47,6.77,15.11,18.05,15.11,30.9a38.72,38.72,0,0,1-.9,8.58c-5,26.61-28.2,43.53-58.88,43.53H85.09l31.58-157.9h64.51C206,75.89,222,90.1,222,111.31a43.93,43.93,0,0,1-.9,9.24C218.63,133,211.19,143.34,199.91,150.78Zm-25.49,28.87c0-7-4.06-11.5-12-11.5H137.2l-6.09,30.9h24.58c9.7,0,16.47-5.41,18.28-15.34A25.35,25.35,0,0,0,174.42,179.65Z"/><path class="cls-42" d="M170.72,109.52h-21L144.33,137h20.3c11.28,0,17.59-6.31,17.59-16.24C182.22,114,177.94,109.52,170.72,109.52Zm29.78,41.73c9.47,6.77,15.11,18.05,15.11,30.91a38.69,38.69,0,0,1-.9,8.57c-5,26.62-28.2,43.53-58.88,43.53H85.68l31.58-157.9h64.51c24.82,0,40.83,14.21,40.83,35.42a44.08,44.08,0,0,1-.9,9.25C219.22,133.43,211.78,143.81,200.5,151.25ZM175,180.13c0-7-4.06-11.51-12-11.51H137.79l-6.09,30.9h24.58c9.7,0,16.47-5.41,18.28-15.33A25.61,25.61,0,0,0,175,180.13Z"/><path class="cls-43" d="M171.31,110h-21l-5.41,27.52h20.3c11.28,0,17.59-6.31,17.59-16.24C182.81,114.51,178.53,110,171.31,110Zm29.78,41.73c9.47,6.77,15.11,18.05,15.11,30.91a38.63,38.63,0,0,1-.9,8.57c-5,26.62-28.2,43.53-58.88,43.53H86.27l31.58-157.9h64.51c24.82,0,40.83,14.22,40.83,35.42a44.08,44.08,0,0,1-.9,9.25C219.81,133.9,212.36,144.28,201.09,151.72ZM175.6,180.6c0-7-4.06-11.51-12-11.51H138.38L132.29,200h24.58c9.7,0,16.47-5.42,18.28-15.34A25.61,25.61,0,0,0,175.6,180.6Z"/><path class="cls-44" d="M171.9,110.47h-21L145.51,138h20.3c11.28,0,17.59-6.32,17.59-16.25C183.4,115,179.12,110.47,171.9,110.47Zm29.78,41.73c9.47,6.76,15.11,18,15.11,30.9a38.57,38.57,0,0,1-.9,8.57c-5,26.62-28.2,43.54-58.88,43.54H86.86l31.58-157.9H183c24.82,0,40.83,14.21,40.83,35.41a44.08,44.08,0,0,1-.9,9.25C220.4,134.38,213,144.75,201.68,152.2Zm-25.49,28.87c0-7-4.06-11.51-12-11.51H139l-6.09,30.91h24.58c9.7,0,16.47-5.41,18.28-15.34A25.48,25.48,0,0,0,176.19,181.07Z"/><path class="cls-45" d="M172.49,110.94h-21l-5.41,27.52h20.3c11.28,0,17.59-6.32,17.59-16.24C184,115.45,179.71,110.94,172.49,110.94Zm29.78,41.73c9.47,6.77,15.11,18,15.11,30.9a38.57,38.57,0,0,1-.9,8.57c-5,26.62-28.2,43.54-58.88,43.54H87.45L119,77.78h64.51c24.82,0,40.83,14.21,40.83,35.41a44,44,0,0,1-.9,9.25C221,134.85,213.54,145.22,202.27,152.67Zm-25.49,28.87c0-7-4.06-11.5-12-11.5H139.56l-6.09,30.9h24.58c9.7,0,16.47-5.41,18.28-15.34A25.48,25.48,0,0,0,176.78,181.54Z"/><path class="cls-46" d="M173.08,111.41h-21l-5.41,27.52H167c11.28,0,17.59-6.32,17.59-16.24C184.58,115.92,180.3,111.41,173.08,111.41Zm29.78,41.73C212.33,159.91,218,171.19,218,184a38.57,38.57,0,0,1-.9,8.57c-5,26.62-28.2,43.54-58.88,43.54H88l31.58-157.9h64.51C209,78.25,225,92.46,225,113.66a44,44,0,0,1-.9,9.25C221.58,135.32,214.13,145.7,202.86,153.14ZM177.37,182c0-7-4.07-11.5-12-11.5H140.15l-6.09,30.9h24.58c9.7,0,16.47-5.41,18.27-15.34A24.27,24.27,0,0,0,177.37,182Z"/><path class="cls-47" d="M173.67,111.88h-21l-5.41,27.52h20.3c11.28,0,17.59-6.32,17.59-16.24C185.17,116.39,180.89,111.88,173.67,111.88Zm29.77,41.73c9.48,6.77,15.12,18,15.12,30.91a38.69,38.69,0,0,1-.9,8.57c-5,26.61-28.2,43.53-58.88,43.53H88.63l31.58-157.9h64.51c24.82,0,40.83,14.21,40.83,35.42a44.08,44.08,0,0,1-.9,9.25C222.17,135.79,214.72,146.17,203.44,153.61ZM178,182.48c0-7-4.07-11.5-12-11.5H140.74l-6.09,30.9h24.58c9.7,0,16.47-5.41,18.27-15.34A24.27,24.27,0,0,0,178,182.48Z"/><path class="cls-48" d="M174.26,112.35h-21l-5.41,27.52h20.3c11.28,0,17.59-6.31,17.59-16.24C185.76,116.86,181.48,112.35,174.26,112.35ZM204,154.08c9.48,6.77,15.12,18,15.12,30.91a38.63,38.63,0,0,1-.9,8.57c-5,26.62-28.2,43.53-58.88,43.53H89.22L120.8,79.19h64.51c24.82,0,40.83,14.21,40.83,35.42a44.08,44.08,0,0,1-.9,9.25C222.76,136.26,215.31,146.64,204,154.08ZM178.55,183c0-7-4.07-11.51-12-11.51H141.33l-6.09,30.91h24.58c9.7,0,16.47-5.42,18.27-15.34A24.51,24.51,0,0,0,178.55,183Z"/><path class="cls-49" d="M174.85,112.82h-21l-5.41,27.52h20.3c11.28,0,17.59-6.31,17.59-16.24C186.35,117.34,182.07,112.82,174.85,112.82Zm29.77,41.74c9.48,6.76,15.12,18,15.12,30.9a38.57,38.57,0,0,1-.9,8.57c-5,26.62-28.2,43.54-58.88,43.54H89.81l31.58-157.9H185.9c24.81,0,40.83,14.21,40.83,35.41a44.08,44.08,0,0,1-.9,9.25C223.35,136.73,215.9,147.11,204.62,154.56Zm-25.49,28.87c0-7-4.06-11.51-11.95-11.51H141.92l-6.09,30.91h24.58c9.7,0,16.47-5.42,18.27-15.34A24.37,24.37,0,0,0,179.13,183.43Z"/><path class="cls-50" d="M175.44,113.3h-21l-5.41,27.52h20.3c11.28,0,17.59-6.32,17.59-16.24C186.94,117.81,182.66,113.3,175.44,113.3ZM205.21,155c9.48,6.76,15.12,18,15.12,30.9a38.57,38.57,0,0,1-.9,8.57c-5,26.62-28.2,43.54-58.88,43.54H90.4L122,80.14h64.51c24.81,0,40.83,14.21,40.83,35.41a44.08,44.08,0,0,1-.9,9.25C223.94,137.21,216.49,147.58,205.21,155ZM179.72,183.9c0-7-4.06-11.5-11.95-11.5H142.51l-6.1,30.9H161c9.7,0,16.47-5.41,18.27-15.34A24.37,24.37,0,0,0,179.72,183.9Z"/><path class="cls-51" d="M176,113.77h-21l-5.41,27.52h20.3c11.28,0,17.59-6.32,17.59-16.24C187.53,118.28,183.25,113.77,176,113.77ZM205.8,155.5c9.48,6.77,15.12,18,15.12,30.9A38.57,38.57,0,0,1,220,195c-5,26.62-28.2,43.54-58.88,43.54H91l31.58-157.9h64.51c24.81,0,40.83,14.21,40.83,35.41a44.7,44.7,0,0,1-.9,9.25C224.53,137.68,217.08,148.06,205.8,155.5Zm-25.49,28.87c0-7-4.06-11.5-11.95-11.5H143.1l-6.1,30.9h24.59c9.7,0,16.47-5.41,18.27-15.34A24.26,24.26,0,0,0,180.31,184.37Z"/><path class="cls-52" d="M176.62,114.24h-21l-5.41,27.52h20.3c11.28,0,17.59-6.32,17.59-16.24C188.12,118.75,183.84,114.24,176.62,114.24ZM206.39,156c9.48,6.77,15.12,18.05,15.12,30.9a38.72,38.72,0,0,1-.9,8.58c-5,26.61-28.2,43.53-58.88,43.53H91.58l31.58-157.9h64.51c24.81,0,40.83,14.21,40.83,35.42a44.6,44.6,0,0,1-.9,9.24C225.12,138.15,217.67,148.53,206.39,156ZM180.9,184.84c0-7-4.06-11.5-12-11.5H143.68l-6.09,30.9h24.59c9.7,0,16.47-5.41,18.27-15.34A24.26,24.26,0,0,0,180.9,184.84Z"/></g></g></svg>