<svg xmlns="http://www.w3.org/2000/svg" viewBox="0 0 227.07 393.19"><defs><style>.cls-1{font-size:300px;fill:#ff5640;}.cls-1,.cls-102{font-family:TypoFormalDemo-BoldItalic, Typo Formal Demo;font-weight:700;font-style:italic;}.cls-2{fill:#ff5842;}.cls-3{fill:#ff5944;}.cls-4{fill:#ff5b46;}.cls-5{fill:#ff5d48;}.cls-6{fill:#ff5e49;}.cls-7{fill:#ff604b;}.cls-8{fill:#ff624d;}.cls-9{fill:#ff634f;}.cls-10{fill:#ff6551;}.cls-11{fill:#ff6753;}.cls-12{fill:#ff6855;}.cls-13{fill:#ff6a57;}.cls-14{fill:#ff6c59;}.cls-15{fill:#ff6d5a;}.cls-16{fill:#ff6f5c;}.cls-17{fill:#ff715e;}.cls-18{fill:#ff7260;}.cls-19{fill:#ff7462;}.cls-20{fill:#ff7664;}.cls-21{fill:#f76;}.cls-22{fill:#ff7968;}.cls-23{fill:#ff7b6a;}.cls-24{fill:#ff7c6b;}.cls-25{fill:#ff7e6d;}.cls-26{fill:#ff806f;}.cls-27{fill:#ff8271;}.cls-28{fill:#ff8373;}.cls-29{fill:#ff8575;}.cls-30{fill:#ff8777;}.cls-31{fill:#ff8879;}.cls-32{fill:#ff8a7b;}.cls-33{fill:#ff8c7d;}.cls-34{fill:#ff8d7e;}.cls-35{fill:#ff8f80;}.cls-36{fill:#ff9182;}.cls-37{fill:#ff9284;}.cls-38{fill:#ff9486;}.cls-39{fill:#ff9688;}.cls-40{fill:#ff978a;}.cls-41{fill:#ff998c;}.cls-42{fill:#ff9b8e;}.cls-43{fill:#ff9c8f;}.cls-44{fill:#ff9e91;}.cls-45{fill:#ffa093;}.cls-46{fill:#ffa195;}.cls-47{fill:#ffa397;}.cls-48{fill:#ffa599;}.cls-49{fill:#ffa69b;}.cls-50{fill:#ffa89d;}.cls-51{fill:#ffaa9f;}.cls-52{fill:#ffaba0;}.cls-53{fill:#ffada2;}.cls-54{fill:#ffafa4;}.cls-55{fill:#ffb0a6;}.cls-56{fill:#ffb2a8;}.cls-57{fill:#ffb4aa;}.cls-58{fill:#ffb5ac;}.cls-59{fill:#ffb7ae;}.cls-60{fill:#ffb9b0;}.cls-61{fill:#ffbab1;}.cls-62{fill:#ffbcb3;}.cls-63{fill:#ffbeb5;}.cls-64{fill:#ffbfb7;}.cls-65{fill:#ffc1b9;}.cls-66{fill:#ffc3bb;}.cls-67{fill:#ffc4bd;}.cls-68{fill:#ffc6bf;}.cls-69{fill:#ffc8c1;}.cls-70{fill:#ffc9c2;}.cls-71{fill:#ffcbc4;}.cls-72{fill:#ffcdc6;}.cls-73{fill:#ffcec8;}.cls-74{fill:#ffd0ca;}.cls-75{fill:#ffd2cc;}.cls-76{fill:#ffd3ce;}.cls-77{fill:#ffd5d0;}.cls-78{fill:#ffd7d2;}.cls-79{fill:#ffd9d4;}.cls-80{fill:#ffdad5;}.cls-81{fill:#ffdcd7;}.cls-82{fill:#ffded9;}.cls-83{fill:#ffdfdb;}.cls-84{fill:#ffe1dd;}.cls-85{fill:#ffe3df;}.cls-86{fill:#ffe4e1;}.cls-87{fill:#ffe6e3;}.cls-88{fill:#ffe8e5;}.cls-89{fill:#ffe9e6;}.cls-90{fill:#ffebe8;}.cls-91{fill:#ffedea;}.cls-92{fill:#ffeeec;}.cls-93{fill:#fff0ee;}.cls-94{fill:#fff2f0;}.cls-95{fill:#fff3f2;}.cls-96{fill:#fff5f4;}.cls-97{fill:#fff7f6;}.cls-98{fill:#fff8f7;}.cls-99{fill:#fffaf9;}.cls-100{fill:#fffcfb;}.cls-101{fill:#fffdfd;}.cls-102{font-size:305px;fill:#fff;}</style></defs><title>logo_b_2</title><g id="Calque_2" data-name="Calque 2"><g id="Calque_1-2" data-name="Calque 1"><text class="cls-1" transform="translate(0 256.2)">B</text><path class="cls-2" d="M100.24,91.77l-7.92,37.06H118.7c4.49,0,8.58-1.91,12.16-5.86A26.89,26.89,0,0,0,137,110.23c1.07-5,.89-9.21-.73-12.6-1.89-3.94-5.18-5.86-9.67-5.86ZM136.72,44c16.11,0,29.09,3.71,38.82,11.28,8.73,6.8,14.07,16,16,27.55,1.81,10.93.33,22.26-4.54,33.84a76.32,76.32,0,0,1-23.15,30.18c9.67,7.23,15.3,17.1,17,29.6,1.62,12-.45,24.14-6.45,36.33a75.67,75.67,0,0,1-27.84,30.77c-13.52,8.63-28.86,13-46.15,13H12L57.16,44ZM83.24,171.76l-7.91,37.07h35.16c4.49,0,8.48-2,12-5.86a26.7,26.7,0,0,0,6.3-12.75c1.08-5,.77-9.17-.87-12.6-1.88-3.9-5-5.86-9.53-5.86Z"/><path class="cls-3" d="M100.57,92.12,92.66,129.2H119c4.49,0,8.59-1.92,12.16-5.86a26.89,26.89,0,0,0,6.16-12.75c1.07-5,.89-9.21-.73-12.6-1.89-3.94-5.18-5.87-9.68-5.87Zm36.49-47.77c16.11,0,29.1,3.72,38.83,11.29,8.73,6.79,14.06,16,16,27.55,1.8,10.93.33,22.26-4.54,33.84a76.28,76.28,0,0,1-23.16,30.19c9.68,7.23,15.31,17.1,17,29.6,1.63,12-.45,24.15-6.45,36.34a75.53,75.53,0,0,1-27.84,30.77c-13.52,8.64-28.86,13-46.15,13H12.36L57.49,44.35ZM83.57,172.13,75.66,209.2h35.17c4.49,0,8.48-2,12-5.86a26.79,26.79,0,0,0,6.3-12.75c1.08-5,.77-9.17-.88-12.6-1.87-3.9-5-5.86-9.52-5.86Z"/><path class="cls-4" d="M100.9,92.48,93,129.56h26.38c4.49,0,8.59-1.91,12.16-5.86A26.89,26.89,0,0,0,137.69,111c1.07-5,.89-9.21-.73-12.6-1.89-3.95-5.18-5.87-9.68-5.87Zm36.49-47.77c16.13,0,29.11,3.71,38.84,11.28,8.73,6.79,14.07,16,16,27.55,1.8,10.94.33,22.27-4.55,33.86a76.35,76.35,0,0,1-23.15,30.19c9.67,7.23,15.3,17.1,17,29.6,1.63,12-.45,24.16-6.45,36.35a75.71,75.71,0,0,1-27.85,30.78c-13.52,8.63-28.87,13-46.16,13H12.68L57.81,44.71ZM83.9,172.5,76,209.58h35.17c4.49,0,8.49-2,12-5.86a26.79,26.79,0,0,0,6.3-12.75q1.61-7.47-.88-12.6a9.76,9.76,0,0,0-9.52-5.87Z"/><path class="cls-5" d="M101.24,92.84l-7.92,37.09H119.7c4.5,0,8.6-1.92,12.17-5.87A26.85,26.85,0,0,0,138,111.31c1.07-5,.89-9.21-.74-12.6-1.88-3.95-5.18-5.87-9.67-5.87Zm36.49-47.78c16.13,0,29.11,3.71,38.85,11.28,8.73,6.8,14.07,16,16,27.56,1.8,10.94.33,22.27-4.55,33.86A76.38,76.38,0,0,1,164.85,148c9.68,7.23,15.31,17.1,17,29.61,1.62,12-.45,24.15-6.45,36.35a75.78,75.78,0,0,1-27.85,30.78c-13.53,8.64-28.88,13.05-46.18,13.05H13L58.14,45.06ZM84.23,172.88,76.32,210H111.5c4.49,0,8.48-2,12-5.86a26.87,26.87,0,0,0,6.3-12.76c1.07-5,.77-9.17-.88-12.6-1.87-3.9-5-5.86-9.53-5.86Z"/><path class="cls-6" d="M101.57,93.2l-7.92,37.09H120c4.5,0,8.59-1.91,12.17-5.86a26.88,26.88,0,0,0,6.16-12.76c1.07-5,.89-9.21-.74-12.6-1.88-3.95-5.18-5.87-9.67-5.87Zm36.5-47.79c16.13,0,29.12,3.71,38.85,11.29,8.74,6.79,14.08,16,16,27.56,1.81,10.94.34,22.27-4.54,33.86a76.34,76.34,0,0,1-23.16,30.2c9.67,7.24,15.31,17.11,17,29.62,1.63,12-.45,24.16-6.45,36.36a75.65,75.65,0,0,1-27.85,30.78c-13.53,8.64-28.89,13-46.18,13H13.31L58.47,45.41ZM84.56,173.25l-7.91,37.09h35.18c4.5,0,8.49-2,12-5.87a26.81,26.81,0,0,0,6.31-12.75c1.07-5,.76-9.18-.88-12.61-1.88-3.9-5-5.86-9.53-5.86Z"/><path class="cls-7" d="M101.9,93.56,94,130.66h26.4c4.49,0,8.59-1.92,12.17-5.87A27,27,0,0,0,138.71,112c1.07-5,.89-9.22-.74-12.61-1.88-4-5.18-5.87-9.67-5.87Zm36.51-47.8c16.13,0,29.12,3.71,38.86,11.29,8.73,6.8,14.08,16,16,27.57,1.81,10.94.33,22.27-4.54,33.87a76.43,76.43,0,0,1-23.17,30.2c9.68,7.24,15.31,17.11,17,29.62,1.63,12-.45,24.17-6.45,36.37a75.83,75.83,0,0,1-27.86,30.79c-13.53,8.64-28.89,13-46.19,13H13.63L58.79,45.76ZM84.89,173.62,77,210.72h35.19c4.49,0,8.49-2,12-5.87a26.89,26.89,0,0,0,6.31-12.76c1.07-5,.76-9.18-.88-12.61-1.88-3.9-5-5.86-9.54-5.86Z"/><path class="cls-8" d="M102.24,93.92,94.32,131h26.39c4.5,0,8.6-1.91,12.18-5.86a27,27,0,0,0,6.16-12.76c1.07-5,.89-9.22-.74-12.61-1.88-4-5.18-5.87-9.68-5.87Zm36.51-47.81c16.13,0,29.13,3.71,38.87,11.29,8.73,6.8,14.07,16,16,27.57,1.81,11,.33,22.28-4.55,33.88a76.28,76.28,0,0,1-23.17,30.21c9.68,7.24,15.32,17.12,17,29.62,1.63,12-.45,24.17-6.46,36.37a75.66,75.66,0,0,1-27.86,30.8c-13.53,8.64-28.89,13-46.2,13H14L59.12,46.11ZM85.22,174,77.3,211.1h35.2c4.5,0,8.49-2,12-5.87a26.78,26.78,0,0,0,6.3-12.76c1.08-5,.77-9.18-.88-12.61-1.87-3.9-5-5.87-9.53-5.87Z"/><path class="cls-9" d="M102.57,94.28l-7.92,37.11h26.4c4.5,0,8.6-1.92,12.17-5.87a26.94,26.94,0,0,0,6.17-12.76c1.07-5,.89-9.22-.74-12.62-1.88-3.94-5.18-5.86-9.68-5.86Zm36.52-47.82c16.14,0,29.13,3.72,38.87,11.3,8.74,6.8,14.08,16,16,27.57,1.81,11,.33,22.28-4.55,33.88a76.4,76.4,0,0,1-23.17,30.22c9.68,7.24,15.32,17.12,17,29.63,1.63,12-.45,24.17-6.45,36.37a75.71,75.71,0,0,1-27.87,30.81c-13.54,8.64-28.9,13.05-46.2,13.05H14.27L59.45,46.46ZM85.55,174.36l-7.92,37.11h35.21c4.49,0,8.49-2,12-5.86a26.89,26.89,0,0,0,6.31-12.76c1.08-5,.77-9.19-.88-12.62a9.77,9.77,0,0,0-9.53-5.87Z"/><path class="cls-10" d="M102.9,94.64,95,131.75h26.41c4.49,0,8.6-1.91,12.17-5.87a26.75,26.75,0,0,0,6.16-12.76c1.08-5,.9-9.22-.73-12.62-1.89-3.94-5.18-5.86-9.68-5.86Zm36.53-47.83c16.14,0,29.14,3.72,38.88,11.3,8.74,6.8,14.08,16,16,27.58,1.81,10.94.33,22.29-4.55,33.89a76.43,76.43,0,0,1-23.18,30.22c9.68,7.24,15.32,17.12,17,29.63,1.63,12-.45,24.18-6.46,36.38a75.64,75.64,0,0,1-27.87,30.81c-13.54,8.64-28.9,13.06-46.21,13.06H14.59L59.77,46.81ZM85.88,174.74,78,211.85h35.21c4.5,0,8.49-2,12-5.87a26.8,26.8,0,0,0,6.31-12.76c1.07-5,.77-9.18-.88-12.62-1.88-3.9-5-5.86-9.54-5.86Z"/><path class="cls-11" d="M103.24,95l-7.93,37.12h26.41c4.5,0,8.6-1.92,12.18-5.87a26.83,26.83,0,0,0,6.16-12.77c1.08-5,.9-9.22-.73-12.62-1.89-3.94-5.19-5.86-9.68-5.86Zm36.53-47.84c16.14,0,29.14,3.72,38.88,11.3,8.74,6.8,14.09,16,16,27.59,1.8,10.94.33,22.29-4.55,33.89a76.45,76.45,0,0,1-23.19,30.22c9.69,7.25,15.33,17.13,17,29.64,1.64,12-.44,24.19-6.45,36.39A75.73,75.73,0,0,1,149.6,247c-13.54,8.65-28.9,13.06-46.22,13.06H14.91L60.1,47.16Zm-53.55,128-7.93,37.12h35.22c4.49,0,8.49-2,12-5.87a26.93,26.93,0,0,0,6.31-12.76q1.6-7.48-.88-12.62c-1.88-3.91-5-5.87-9.54-5.87Z"/><path class="cls-12" d="M103.57,95.35l-7.93,37.13h26.42c4.5,0,8.6-1.91,12.18-5.87a26.84,26.84,0,0,0,6.16-12.76c1.08-5,.89-9.23-.73-12.63-1.89-3.94-5.19-5.87-9.69-5.87Zm36.54-47.84c16.14,0,29.14,3.72,38.89,11.3,8.74,6.81,14.09,16,16,27.59,1.81,10.95.34,22.3-4.55,33.9a76.29,76.29,0,0,1-23.18,30.23q14.52,10.86,17,29.65c1.63,12-.45,24.18-6.46,36.39a75.75,75.75,0,0,1-27.88,30.82C136.4,256,121,260.45,103.72,260.45H15.23L60.42,47.51Zm-53.56,128-7.93,37.13h35.22c4.5,0,8.5-2,12-5.87A26.89,26.89,0,0,0,132.19,194c1.07-5,.76-9.19-.89-12.62-1.87-3.9-5-5.87-9.53-5.87Z"/><path class="cls-13" d="M103.9,95.71,96,132.85H122.4c4.5,0,8.6-1.92,12.18-5.87a26.83,26.83,0,0,0,6.16-12.77c1.08-5,.89-9.23-.73-12.63-1.89-3.94-5.19-5.87-9.69-5.87Zm36.55-47.84c16.14,0,29.15,3.71,38.89,11.3,8.75,6.8,14.09,16,16,27.59,1.81,10.95.34,22.3-4.55,33.91A76.48,76.48,0,0,1,167.6,150.9c9.69,7.24,15.33,17.13,17,29.65,1.63,12-.45,24.19-6.46,36.4a75.72,75.72,0,0,1-27.89,30.82c-13.54,8.65-28.91,13.06-46.23,13.06H15.54l45.21-213Zm-53.57,128L79,213h35.23c4.5,0,8.49-2,12-5.87a26.79,26.79,0,0,0,6.31-12.77c1.08-5,.77-9.19-.88-12.63-1.87-3.9-5-5.87-9.54-5.87Z"/><path class="cls-14" d="M104.24,96.07l-7.93,37.14h26.42c4.5,0,8.61-1.91,12.19-5.87a26.92,26.92,0,0,0,6.16-12.77c1.08-5,.89-9.23-.73-12.63-1.89-3.94-5.19-5.87-9.69-5.87Zm36.55-47.85c16.15,0,29.15,3.71,38.9,11.3,8.74,6.81,14.09,16,16,27.6,1.81,10.95.33,22.3-4.55,33.91A76.51,76.51,0,0,1,168,151.27q14.52,10.86,17,29.65c1.64,12-.45,24.2-6.45,36.41a75.83,75.83,0,0,1-27.9,30.83c-13.54,8.64-28.92,13.06-46.24,13.06H15.86l45.22-213Zm-53.58,128-7.93,37.14h35.23c4.5,0,8.5-2,12-5.87a26.83,26.83,0,0,0,6.31-12.77c1.08-5,.77-9.19-.88-12.62a9.78,9.78,0,0,0-9.54-5.88Z"/><path class="cls-15" d="M104.57,96.43l-7.93,37.15h26.43c4.5,0,8.6-1.92,12.18-5.88a26.93,26.93,0,0,0,6.17-12.77c1.08-5,.89-9.23-.73-12.63-1.89-3.94-5.19-5.87-9.69-5.87Zm36.56-47.86c16.15,0,29.16,3.72,38.91,11.3,8.74,6.81,14.09,16.05,16,27.61,1.81,11,.33,22.3-4.55,33.91a76.57,76.57,0,0,1-23.2,30.25c9.69,7.24,15.33,17.13,17,29.65,1.63,12.05-.45,24.2-6.46,36.42A75.83,75.83,0,0,1,151,248.54c-13.54,8.65-28.92,13.07-46.24,13.07H16.18l45.22-213Zm-53.59,128-7.93,37.14h35.24c4.5,0,8.5-2,12-5.87a27,27,0,0,0,6.31-12.77c1.07-5,.77-9.2-.88-12.63-1.88-3.91-5-5.87-9.55-5.87Z"/><path class="cls-16" d="M104.9,96.79,97,133.94H123.4c4.51,0,8.61-1.92,12.19-5.87a27,27,0,0,0,6.17-12.78c1.08-5,.89-9.23-.73-12.63-1.89-3.94-5.19-5.87-9.7-5.87Zm36.57-47.87c16.15,0,29.16,3.72,38.91,11.31,8.75,6.8,14.1,16,16,27.6,1.81,11,.33,22.31-4.55,33.92A76.45,76.45,0,0,1,168.63,152c9.7,7.25,15.34,17.14,17,29.67,1.63,12-.45,24.2-6.46,36.42a75.9,75.9,0,0,1-27.9,30.83C137.76,257.58,122.38,262,105.05,262H16.5L61.73,48.92ZM87.87,177l-7.93,37.15h35.24c4.5,0,8.5-2,12-5.87a26.92,26.92,0,0,0,6.32-12.78c1.07-5,.77-9.19-.88-12.63a9.8,9.8,0,0,0-9.55-5.87Z"/><path class="cls-17" d="M105.24,97.15,97.3,134.31h26.44c4.5,0,8.61-1.92,12.19-5.88a26.93,26.93,0,0,0,6.17-12.77c1.08-5,.89-9.24-.73-12.64-1.89-3.94-5.19-5.87-9.7-5.87Zm36.57-47.88C158,49.27,171,53,180.73,60.58c8.75,6.81,14.1,16,16,27.61,1.81,11,.33,22.31-4.56,33.93A76.48,76.48,0,0,1,169,152.37c9.69,7.25,15.34,17.14,17,29.67,1.64,12.05-.45,24.21-6.46,36.42a75.82,75.82,0,0,1-27.9,30.85c-13.56,8.65-28.94,13.07-46.27,13.07H16.82L62.06,49.27ZM88.2,177.34,80.27,214.5h35.25c4.5,0,8.5-2,12-5.88a26.84,26.84,0,0,0,6.32-12.77c1.07-5,.76-9.2-.89-12.63-1.87-3.91-5-5.88-9.54-5.88Z"/><path class="cls-18" d="M105.57,97.51l-7.93,37.16h26.44c4.5,0,8.61-1.92,12.19-5.87A27,27,0,0,0,142.44,116c1.08-5,.89-9.24-.74-12.64-1.88-3.95-5.19-5.87-9.69-5.87Zm36.58-47.89c16.15,0,29.17,3.72,38.92,11.31,8.75,6.81,14.1,16.06,16,27.62,1.81,11,.34,22.31-4.55,33.93a76.46,76.46,0,0,1-23.21,30.26c9.7,7.25,15.34,17.14,17,29.67,1.63,12.05-.45,24.21-6.46,36.43A75.85,75.85,0,0,1,152,249.69c-13.56,8.66-28.94,13.08-46.27,13.08H17.14L62.38,49.62ZM88.53,177.71,80.6,214.88h35.25c4.51,0,8.51-2,12.05-5.88a26.78,26.78,0,0,0,6.31-12.78c1.08-5,.77-9.2-.88-12.63-1.88-3.91-5-5.88-9.55-5.88Z"/><path class="cls-19" d="M105.9,97.87,98,135h26.44c4.51,0,8.62-1.92,12.2-5.88a27,27,0,0,0,6.17-12.78c1.08-5,.89-9.23-.74-12.64-1.89-3.95-5.19-5.87-9.69-5.87ZM142.48,50c16.17,0,29.18,3.72,38.94,11.31,8.75,6.82,14.1,16.06,16,27.63,1.81,11,.34,22.32-4.55,33.93a76.49,76.49,0,0,1-23.21,30.27c9.69,7.25,15.34,17.14,17,29.68,1.63,12.05-.45,24.21-6.47,36.43a75.87,75.87,0,0,1-27.91,30.86c-13.56,8.65-28.94,13.07-46.28,13.07H17.46L62.71,50ZM88.86,178.09l-7.93,37.17h35.26c4.5,0,8.5-2,12-5.88a26.92,26.92,0,0,0,6.32-12.78c1.08-5,.77-9.2-.88-12.64-1.88-3.91-5-5.87-9.55-5.87Z"/><path class="cls-20" d="M106.24,98.23,98.3,135.4h26.45c4.51,0,8.61-1.92,12.2-5.87a27,27,0,0,0,6.17-12.79c1.07-5,.89-9.23-.74-12.64-1.89-3.95-5.19-5.87-9.69-5.87Zm36.58-47.91C159,50.32,172,54,181.76,61.64c8.76,6.81,14.11,16.06,16,27.62,1.81,11,.33,22.33-4.55,33.95A76.68,76.68,0,0,1,170,153.48c9.7,7.25,15.35,17.15,17,29.68,1.64,12.05-.45,24.22-6.46,36.44a75.83,75.83,0,0,1-27.92,30.86c-13.56,8.66-28.95,13.08-46.29,13.08H17.78L63,50.32ZM89.19,178.46l-7.94,37.17h35.27c4.51,0,8.51-2,12-5.87A26.91,26.91,0,0,0,134.89,197c1.08-5,.77-9.2-.88-12.63a9.8,9.8,0,0,0-9.55-5.88Z"/><path class="cls-21" d="M106.57,98.59l-7.94,37.18h26.46c4.5,0,8.61-1.92,12.19-5.88a26.92,26.92,0,0,0,6.18-12.79c1.07-5,.89-9.23-.74-12.64-1.89-3.95-5.19-5.87-9.7-5.87Zm36.59-47.92c16.17,0,29.19,3.73,39,11.32,8.76,6.81,14.11,16.06,16,27.63,1.81,11,.33,22.33-4.56,33.95a76.53,76.53,0,0,1-23.22,30.28c9.7,7.25,15.35,17.15,17.05,29.68,1.63,12.06-.45,24.22-6.47,36.45A75.76,75.76,0,0,1,153,250.84c-13.56,8.66-28.95,13.08-46.29,13.08H18.09L63.36,50.67ZM89.52,178.83,81.58,216h35.28c4.5,0,8.51-2,12-5.88a26.92,26.92,0,0,0,6.32-12.78c1.07-5,.77-9.2-.88-12.64-1.88-3.91-5-5.88-9.56-5.88Z"/><path class="cls-22" d="M106.9,98.94,99,136.13h26.46c4.51,0,8.62-1.92,12.2-5.88a26.88,26.88,0,0,0,6.18-12.79c1.07-5,.89-9.23-.74-12.64-1.89-3.95-5.19-5.88-9.7-5.88ZM143.5,51c16.17,0,29.2,3.73,39,11.32,8.75,6.82,14.11,16.07,16,27.64,1.81,11,.33,22.33-4.56,34a76.48,76.48,0,0,1-23.22,30.28c9.7,7.26,15.35,17.16,17.05,29.7,1.63,12.05-.45,24.22-6.47,36.45a75.94,75.94,0,0,1-27.93,30.87c-13.56,8.66-29,13.08-46.3,13.08H18.41L63.69,51ZM89.85,179.2l-7.94,37.19h35.28c4.51,0,8.51-2,12.05-5.88a26.84,26.84,0,0,0,6.33-12.79c1.07-5,.76-9.2-.89-12.64-1.87-3.91-5-5.88-9.55-5.88Z"/><path class="cls-23" d="M107.24,99.3,99.3,136.5h26.46c4.51,0,8.62-1.92,12.2-5.88a27,27,0,0,0,6.18-12.79c1.07-5,.89-9.24-.74-12.65-1.89-4-5.19-5.88-9.7-5.88Zm36.6-47.92c16.17,0,29.2,3.72,39,11.32,8.76,6.81,14.12,16.06,16,27.64,1.81,11,.33,22.33-4.56,34A76.64,76.64,0,0,1,171,154.58c9.7,7.26,15.35,17.16,17.05,29.7,1.64,12.06-.45,24.23-6.46,36.46a75.9,75.9,0,0,1-27.94,30.87c-13.56,8.66-29,13.09-46.31,13.09H18.73L64,51.38ZM90.18,179.57l-7.94,37.2h35.29c4.5,0,8.51-2,12.05-5.88a26.91,26.91,0,0,0,6.32-12.79c1.08-5,.77-9.21-.88-12.65a9.8,9.8,0,0,0-9.55-5.88Z"/><path class="cls-24" d="M107.57,99.66l-7.94,37.2H126.1c4.5,0,8.61-1.92,12.2-5.88a27,27,0,0,0,6.18-12.79c1.07-5,.89-9.24-.74-12.65-1.89-4-5.2-5.88-9.7-5.88Zm36.61-47.93c16.18,0,29.2,3.72,39,11.32,8.76,6.82,14.11,16.07,16,27.64,1.82,11,.34,22.34-4.55,34A76.63,76.63,0,0,1,171.38,155c9.71,7.25,15.36,17.16,17.06,29.7,1.64,12.06-.45,24.23-6.47,36.47A75.92,75.92,0,0,1,154,252c-13.56,8.66-29,13.08-46.31,13.08H19.05L64.34,51.73ZM90.51,180l-7.94,37.2h35.29c4.51,0,8.51-2,12.06-5.88a27,27,0,0,0,6.32-12.8c1.08-5,.77-9.2-.88-12.64-1.88-3.91-5.05-5.88-9.56-5.88Z"/><path class="cls-25" d="M107.9,100,100,137.23h26.47c4.51,0,8.62-1.92,12.21-5.88a27,27,0,0,0,6.18-12.8c1.07-5,.89-9.24-.74-12.65-1.89-4-5.2-5.88-9.71-5.88Zm36.62-47.94c16.18,0,29.21,3.72,39,11.32,8.76,6.82,14.12,16.07,16,27.65,1.82,11,.34,22.34-4.56,34a76.54,76.54,0,0,1-23.23,30.3c9.7,7.25,15.36,17.16,17.06,29.7,1.63,12.07-.45,24.24-6.47,36.48a76,76,0,0,1-27.95,30.88c-13.57,8.66-29,13.09-46.32,13.09H19.37L64.66,52.08ZM90.84,180.32,82.9,217.53h35.3c4.51,0,8.51-2,12.06-5.89a26.91,26.91,0,0,0,6.32-12.79c1.08-5,.77-9.21-.88-12.65-1.88-3.91-5-5.88-9.56-5.88Z"/><path class="cls-26" d="M108.24,100.38l-7.95,37.21h26.48c4.51,0,8.62-1.92,12.21-5.88a27,27,0,0,0,6.17-12.8c1.08-5,.9-9.24-.73-12.65-1.89-4-5.2-5.88-9.71-5.88Zm36.62-47.95c16.18,0,29.21,3.72,39,11.32,8.76,6.82,14.12,16.08,16,27.66,1.81,11,.34,22.34-4.56,34a76.69,76.69,0,0,1-23.24,30.31c9.71,7.25,15.36,17.16,17.06,29.71,1.64,12.06-.45,24.24-6.47,36.47a75.89,75.89,0,0,1-27.94,30.89c-13.58,8.67-29,13.09-46.34,13.09H19.69L65,52.43ZM91.17,180.69,83.23,217.9h35.3c4.51,0,8.52-2,12.06-5.88a26.87,26.87,0,0,0,6.33-12.8c1.08-5,.77-9.21-.89-12.65-1.87-3.91-5.05-5.88-9.56-5.88Z"/><path class="cls-27" d="M108.57,100.74,100.62,138H127.1c4.52,0,8.63-1.92,12.22-5.89a27,27,0,0,0,6.17-12.8c1.08-5,.9-9.24-.73-12.65-1.89-4-5.2-5.88-9.71-5.88Zm36.63-48c16.18,0,29.22,3.73,39,11.33,8.77,6.82,14.13,16.08,16,27.65,1.81,11,.33,22.36-4.56,34a76.66,76.66,0,0,1-23.24,30.3c9.71,7.26,15.36,17.17,17.06,29.72,1.64,12.07-.45,24.25-6.47,36.48a76.07,76.07,0,0,1-27.95,30.9c-13.58,8.66-29,13.09-46.34,13.09H20L65.32,52.78ZM91.5,181.06l-7.94,37.22h35.31c4.51,0,8.51-2,12.06-5.88a27,27,0,0,0,6.33-12.8q1.61-7.5-.89-12.65c-1.88-3.92-5.05-5.89-9.56-5.89Z"/><path class="cls-28" d="M108.9,101.1,101,138.32h26.48c4.51,0,8.63-1.92,12.21-5.88a27,27,0,0,0,6.18-12.8c1.08-5,.9-9.25-.73-12.66-1.89-4-5.2-5.88-9.71-5.88Zm36.64-48c16.18,0,29.22,3.73,39,11.33,8.77,6.82,14.13,16.08,16,27.66,1.81,11,.33,22.36-4.56,34a76.55,76.55,0,0,1-23.25,30.31c9.71,7.26,15.37,17.17,17.07,29.72,1.63,12.07-.45,24.25-6.48,36.49a75.88,75.88,0,0,1-27.95,30.9c-13.58,8.67-29,13.1-46.35,13.1H20.33L65.64,53.13ZM91.83,181.43l-7.94,37.23H119.2c4.51,0,8.52-2,12.07-5.89a26.9,26.9,0,0,0,6.32-12.8c1.08-5,.77-9.21-.88-12.65a9.81,9.81,0,0,0-9.56-5.89Z"/><path class="cls-29" d="M109.24,101.46l-7.95,37.23h26.49c4.51,0,8.62-1.92,12.21-5.89a27,27,0,0,0,6.18-12.8c1.08-5,.9-9.25-.73-12.66-1.9-4-5.2-5.88-9.72-5.88Zm36.64-48c16.19,0,29.22,3.73,39,11.33,8.76,6.83,14.12,16.09,16,27.67,1.81,11,.33,22.36-4.57,34a76.65,76.65,0,0,1-23.25,30.32c9.72,7.26,15.37,17.17,17.07,29.73,1.64,12.07-.45,24.25-6.47,36.49a76.06,76.06,0,0,1-28,30.91c-13.58,8.67-29,13.09-46.36,13.09H20.64L66,53.48ZM92.16,181.81,84.22,219h35.32c4.51,0,8.52-2,12.06-5.89a26.87,26.87,0,0,0,6.33-12.8c1.08-5,.77-9.21-.88-12.66-1.88-3.91-5.05-5.88-9.57-5.88Z"/><path class="cls-30" d="M109.57,101.82l-7.95,37.23h26.49c4.52,0,8.63-1.92,12.22-5.88a27,27,0,0,0,6.18-12.81c1.08-5,.9-9.25-.73-12.66-1.9-4-5.21-5.88-9.72-5.88Zm36.65-48c16.19,0,29.23,3.73,39,11.34C194,72,199.35,81.25,201.27,92.84c1.81,11,.33,22.36-4.57,34a76.65,76.65,0,0,1-23.25,30.32c9.71,7.26,15.37,17.17,17.07,29.73,1.64,12.07-.45,24.26-6.48,36.5a75.92,75.92,0,0,1-28,30.91c-13.58,8.67-29,13.1-46.36,13.1H21L66.3,53.83ZM92.5,182.18l-8,37.24h35.32c4.51,0,8.52-2,12.07-5.89a26.91,26.91,0,0,0,6.33-12.81c1.08-5,.77-9.21-.88-12.65-1.88-3.92-5.06-5.89-9.57-5.89Z"/><path class="cls-31" d="M109.9,102.17l-8,37.25h26.5c4.51,0,8.63-1.92,12.22-5.89a27,27,0,0,0,6.18-12.81c1.08-5,.9-9.25-.73-12.66-1.9-4-5.21-5.89-9.72-5.89Zm36.66-48c16.19,0,29.23,3.73,39,11.34,8.77,6.82,14.13,16.09,16,27.67,1.82,11,.34,22.37-4.56,34a76.71,76.71,0,0,1-23.26,30.33c9.72,7.26,15.38,17.18,17.08,29.73,1.63,12.08-.45,24.26-6.48,36.51a76,76,0,0,1-28,30.91c-13.58,8.68-29,13.11-46.37,13.11H21.28L66.62,54.18ZM92.83,182.55l-8,37.25h35.33c4.51,0,8.52-2,12.07-5.89a27,27,0,0,0,6.33-12.81c1.08-5,.77-9.22-.89-12.66-1.88-3.92-5.05-5.89-9.56-5.89Z"/><path class="cls-32" d="M110.24,102.53l-8,37.25h26.51c4.51,0,8.63-1.92,12.22-5.89a27,27,0,0,0,6.18-12.81c1.08-5,.9-9.25-.74-12.66-1.89-4-5.2-5.89-9.71-5.89Zm36.66-48c16.19,0,29.24,3.72,39,11.33C194.68,72.7,200.05,82,202,93.55c1.82,11,.34,22.37-4.56,34a76.66,76.66,0,0,1-23.27,30.33c9.72,7.27,15.38,17.19,17.08,29.74,1.64,12.08-.45,24.27-6.47,36.52a76.06,76.06,0,0,1-28,30.92c-13.59,8.67-29,13.1-46.38,13.1H21.6L67,54.54ZM93.16,182.92l-8,37.25h35.33c4.52,0,8.53-2,12.07-5.89A26.87,26.87,0,0,0,139,201.47c1.07-5,.77-9.21-.89-12.66-1.88-3.91-5.05-5.89-9.57-5.89Z"/><path class="cls-33" d="M110.57,102.89l-7.95,37.26h26.5c4.52,0,8.63-1.92,12.23-5.89a27.08,27.08,0,0,0,6.18-12.81c1.08-5,.89-9.26-.74-12.67-1.89-4-5.2-5.89-9.72-5.89Zm36.67-48c16.19,0,29.24,3.73,39,11.34,8.77,6.82,14.14,16.09,16.05,27.68,1.82,11,.33,22.37-4.56,34a76.83,76.83,0,0,1-23.27,30.33c9.72,7.27,15.38,17.19,17.08,29.75,1.64,12.08-.45,24.27-6.48,36.52a76,76,0,0,1-28,30.92c-13.59,8.68-29,13.11-46.38,13.11H21.92L67.27,54.89ZM93.49,183.3l-8,37.25h35.35c4.51,0,8.52-2,12.07-5.89a26.91,26.91,0,0,0,6.33-12.81c1.08-5,.77-9.22-.88-12.66-1.88-3.92-5.06-5.89-9.57-5.89Z"/><path class="cls-34" d="M110.9,103.25l-8,37.26h26.51c4.51,0,8.63-1.92,12.22-5.89a27,27,0,0,0,6.19-12.81c1.08-5,.89-9.26-.74-12.67-1.89-4-5.2-5.89-9.72-5.89Zm36.67-48c16.21,0,29.25,3.73,39,11.34,8.78,6.83,14.14,16.09,16.06,27.69,1.81,11,.33,22.37-4.57,34a76.6,76.6,0,0,1-23.27,30.34c9.72,7.27,15.38,17.19,17.09,29.75,1.63,12.08-.45,24.27-6.48,36.53a76.11,76.11,0,0,1-28,30.93c-13.59,8.67-29,13.1-46.39,13.1H22.24L67.6,55.24ZM93.82,183.67l-8,37.26h35.35c4.52,0,8.53-2,12.08-5.89a27,27,0,0,0,6.33-12.81c1.08-5,.77-9.23-.88-12.67-1.88-3.92-5.06-5.89-9.58-5.89Z"/><path class="cls-35" d="M111.24,103.61l-8,37.27H129.8c4.51,0,8.63-1.93,12.22-5.89a27,27,0,0,0,6.19-12.82c1.08-5,.89-9.26-.74-12.67-1.89-4-5.2-5.89-9.72-5.89Zm36.67-48c16.21,0,29.26,3.73,39,11.34C195.73,73.76,201.09,83,203,94.62c1.81,11,.33,22.38-4.57,34A76.89,76.89,0,0,1,175.17,159c9.72,7.27,15.38,17.19,17.08,29.75,1.64,12.09-.45,24.28-6.48,36.54a76,76,0,0,1-28,30.93c-13.59,8.68-29,13.11-46.4,13.11H22.56L67.93,55.59ZM94.15,184l-8,37.27h35.36c4.51,0,8.52-2,12.08-5.89A27,27,0,0,0,140,202.6c1.08-5,.77-9.22-.88-12.67C137.19,186,134,184,129.5,184Z"/><path class="cls-36" d="M111.57,104l-8,37.27h26.52c4.52,0,8.64-1.92,12.23-5.89a27,27,0,0,0,6.19-12.82c1.08-5,.89-9.26-.74-12.67-1.89-4-5.21-5.89-9.72-5.89Zm36.68-48c16.21,0,29.26,3.73,39.05,11.34,8.77,6.83,14.14,16.11,16.06,27.7,1.81,11,.33,22.39-4.57,34a76.82,76.82,0,0,1-23.28,30.35c9.72,7.27,15.39,17.19,17.09,29.76,1.64,12.08-.45,24.28-6.48,36.53a76,76,0,0,1-28,30.94c-13.59,8.68-29,13.12-46.4,13.12H22.88L68.25,55.94ZM94.48,184.41l-8,37.28h35.36c4.52,0,8.53-2,12.08-5.9A27,27,0,0,0,140.3,203c1.08-5,.77-9.23-.89-12.68a9.82,9.82,0,0,0-9.57-5.89Z"/><path class="cls-37" d="M111.9,104.33l-8,37.28h26.53c4.52,0,8.64-1.93,12.23-5.9a27,27,0,0,0,6.19-12.82c1.08-5,.89-9.26-.74-12.67-1.89-4-5.21-5.89-9.72-5.89Zm36.69-48c16.21,0,29.27,3.73,39,11.35,8.78,6.83,14.15,16.1,16.06,27.7,1.82,11,.34,22.39-4.56,34a76.61,76.61,0,0,1-23.29,30.35c9.73,7.27,15.39,17.2,17.1,29.77,1.63,12.09-.45,24.28-6.49,36.54a76.1,76.1,0,0,1-28,31c-13.6,8.68-29,13.11-46.42,13.11H23.19L68.58,56.29ZM94.81,184.78l-8,37.28h35.37q6.77,0,12.08-5.89a27,27,0,0,0,6.34-12.82c1.08-5,.77-9.23-.89-12.67-1.88-3.92-5.06-5.9-9.58-5.9Z"/><path class="cls-38" d="M112.24,104.69l-8,37.28H130.8c4.52,0,8.64-1.92,12.24-5.89a27,27,0,0,0,6.19-12.82c1.08-5,.89-9.27-.74-12.68-1.9-4-5.21-5.89-9.73-5.89Zm36.69-48c16.21,0,29.27,3.73,39.06,11.35,8.78,6.83,14.15,16.11,16.06,27.71,1.82,11,.34,22.39-4.57,34A76.78,76.78,0,0,1,176.2,160.1c9.72,7.27,15.39,17.2,17.09,29.77,1.64,12.09-.45,24.29-6.48,36.55a76.13,76.13,0,0,1-28,31c-13.6,8.68-29,13.12-46.43,13.12H23.51L68.91,56.64ZM95.14,185.16l-8,37.28h35.37c4.52,0,8.53-2,12.09-5.89A26.94,26.94,0,0,0,141,203.73c1.08-5,.78-9.23-.88-12.68-1.88-3.92-5.06-5.89-9.58-5.89Z"/><path class="cls-39" d="M112.57,105.05l-8,37.29h26.53c4.52,0,8.64-1.93,12.24-5.9a27.09,27.09,0,0,0,6.19-12.82c1.08-5,.89-9.27-.74-12.68-1.9-4-5.21-5.89-9.73-5.89ZM149.27,57c16.22,0,29.28,3.74,39.06,11.35,8.78,6.84,14.15,16.11,16.07,27.71,1.82,11,.33,22.4-4.57,34.05a76.68,76.68,0,0,1-23.29,30.37c9.73,7.27,15.4,17.2,17.1,29.77,1.64,12.1-.45,24.3-6.49,36.56a76.08,76.08,0,0,1-28,31c-13.6,8.68-29,13.11-46.43,13.11H23.83L69.23,57ZM95.47,185.53l-8,37.29h35.38c4.52,0,8.53-2,12.08-5.9a27,27,0,0,0,6.34-12.82c1.08-5,.77-9.23-.88-12.68-1.89-3.92-5.06-5.89-9.58-5.89Z"/><path class="cls-40" d="M112.9,105.41l-8,37.29h26.54c4.52,0,8.64-1.92,12.23-5.89a27.09,27.09,0,0,0,6.2-12.83c1.08-5,.89-9.26-.74-12.68-1.9-4-5.21-5.89-9.73-5.89Zm36.71-48.07c16.22,0,29.28,3.74,39.07,11.36,8.78,6.83,14.15,16.11,16.07,27.71,1.82,11,.33,22.4-4.57,34.06a76.84,76.84,0,0,1-23.29,30.37c9.73,7.27,15.39,17.2,17.1,29.78,1.64,12.09-.46,24.3-6.49,36.56a76.11,76.11,0,0,1-28,31c-13.61,8.69-29,13.12-46.44,13.12H24.15L69.56,57.34ZM95.8,185.9l-8,37.3h35.38c4.52,0,8.54-2,12.09-5.9a27,27,0,0,0,6.34-12.82c1.08-5,.77-9.23-.88-12.68a9.84,9.84,0,0,0-9.59-5.9Z"/><path class="cls-41" d="M113.24,105.76l-8,37.31h26.54c4.52,0,8.65-1.93,12.24-5.9a27,27,0,0,0,6.2-12.83c1.08-5,.89-9.26-.74-12.68-1.9-4-5.21-5.9-9.73-5.9ZM150,57.69c16.22,0,29.28,3.74,39.07,11.36,8.79,6.83,14.16,16.11,16.08,27.72,1.81,11,.33,22.4-4.57,34.06a76.8,76.8,0,0,1-23.3,30.38c9.73,7.27,15.4,17.2,17.1,29.78,1.64,12.1-.45,24.3-6.48,36.57a76.13,76.13,0,0,1-28,31c-13.61,8.69-29.05,13.13-46.45,13.13H24.47l45.41-214ZM96.13,186.27l-8,37.31h35.39c4.52,0,8.53-2,12.09-5.9A27,27,0,0,0,142,204.85c1.08-5,.77-9.23-.89-12.68-1.88-3.92-5.06-5.9-9.58-5.9Z"/><path class="cls-42" d="M113.57,106.12l-8,37.31h26.55c4.52,0,8.64-1.92,12.24-5.89a27.07,27.07,0,0,0,6.19-12.84c1.09-5,.9-9.26-.73-12.68-1.9-4-5.21-5.9-9.74-5.9Zm36.72-48.07c16.22,0,29.29,3.73,39.08,11.35,8.79,6.84,14.16,16.12,16.08,27.73,1.81,11,.33,22.4-4.58,34.06a76.73,76.73,0,0,1-23.3,30.38c9.74,7.28,15.41,17.21,17.11,29.79,1.64,12.1-.45,24.31-6.49,36.58a76.22,76.22,0,0,1-28,31c-13.61,8.69-29,13.12-46.45,13.12H24.79l45.42-214ZM96.46,186.64,88.5,224h35.39c4.52,0,8.54-2,12.09-5.9a27,27,0,0,0,6.35-12.83c1.08-5,.77-9.24-.89-12.69-1.88-3.92-5.06-5.9-9.58-5.9Z"/><path class="cls-43" d="M113.9,106.48l-8,37.32h26.55c4.52,0,8.64-1.93,12.24-5.9a27.08,27.08,0,0,0,6.19-12.83c1.08-5,.9-9.27-.73-12.69-1.9-4-5.22-5.9-9.74-5.9ZM150.63,58.4c16.22,0,29.29,3.73,39.09,11.35,8.78,6.84,14.16,16.12,16.07,27.73,1.82,11,.34,22.41-4.57,34.08a76.73,76.73,0,0,1-23.3,30.38c9.73,7.28,15.4,17.22,17.11,29.8,1.64,12.1-.46,24.31-6.49,36.58a76.11,76.11,0,0,1-28,31c-13.61,8.69-29.06,13.13-46.46,13.13H25.11l45.43-214ZM96.79,187l-8,37.31h35.4c4.52,0,8.54-2,12.09-5.9a26.94,26.94,0,0,0,6.34-12.83q1.62-7.51-.88-12.68c-1.89-3.93-5.07-5.9-9.59-5.9Z"/><path class="cls-44" d="M114.23,106.84l-8,37.32h26.55c4.53,0,8.65-1.92,12.25-5.9a27,27,0,0,0,6.19-12.83c1.08-5,.9-9.27-.73-12.69-1.9-4-5.22-5.9-9.74-5.9ZM151,58.75c16.23,0,29.3,3.73,39.09,11.36,8.79,6.84,14.16,16.12,16.08,27.73,1.82,11,.34,22.41-4.57,34.08a76.86,76.86,0,0,1-23.31,30.39c9.74,7.28,15.41,17.22,17.11,29.8,1.64,12.1-.45,24.31-6.49,36.59a76.2,76.2,0,0,1-28,31c-13.61,8.69-29.06,13.13-46.47,13.13H25.43L70.86,58.75ZM97.12,187.39l-8,37.32h35.4c4.52,0,8.54-2,12.1-5.9A27,27,0,0,0,143,206c1.08-5,.77-9.24-.88-12.69-1.89-3.93-5.07-5.9-9.59-5.9Z"/><path class="cls-45" d="M114.57,107.2l-8,37.33h26.56c4.52,0,8.65-1.93,12.25-5.9a27.07,27.07,0,0,0,6.19-12.84c1.08-5,.9-9.27-.73-12.69-1.9-4-5.22-5.9-9.74-5.9Zm36.74-48.1c16.23,0,29.3,3.74,39.1,11.36,8.79,6.84,14.16,16.13,16.08,27.74,1.82,11,.34,22.42-4.57,34.08a76.84,76.84,0,0,1-23.32,30.4c9.74,7.28,15.41,17.22,17.12,29.8,1.64,12.11-.45,24.32-6.49,36.59a76.19,76.19,0,0,1-28,31c-13.61,8.69-29.06,13.13-46.47,13.13h-89L71.19,59.1ZM97.45,187.76l-8,37.33H124.9c4.52,0,8.54-2,12.1-5.9a27,27,0,0,0,6.34-12.84c1.08-5,.77-9.24-.89-12.69-1.88-3.92-5.06-5.9-9.59-5.9Z"/><path class="cls-46" d="M114.9,107.56l-8,37.33H133.5c4.52,0,8.65-1.92,12.24-5.9a27,27,0,0,0,6.2-12.84c1.08-5,.9-9.27-.74-12.69-1.89-4-5.21-5.9-9.74-5.9Zm36.75-48.11c16.23,0,29.3,3.74,39.1,11.36,8.79,6.84,14.17,16.13,16.09,27.75,1.82,11,.33,22.42-4.58,34.09A76.8,76.8,0,0,1,179,163.05c9.74,7.28,15.41,17.22,17.12,29.81,1.64,12.1-.46,24.32-6.5,36.59a76.06,76.06,0,0,1-28,31c-13.61,8.7-29.07,13.14-46.48,13.14h-89L71.52,59.45ZM97.78,188.13l-8,37.34h35.42c4.53,0,8.55-2,12.1-5.9a27.08,27.08,0,0,0,6.35-12.84c1.08-5,.77-9.24-.89-12.69-1.88-3.93-5.07-5.91-9.59-5.91Z"/><path class="cls-47" d="M115.23,107.92l-8,37.34h26.57c4.53,0,8.65-1.93,12.25-5.9a27,27,0,0,0,6.2-12.85c1.08-5,.9-9.27-.74-12.69-1.9-4-5.21-5.9-9.74-5.9ZM152,59.8c16.23,0,29.31,3.74,39.11,11.37,8.79,6.84,14.17,16.13,16.09,27.74,1.82,11,.33,22.43-4.58,34.1a76.75,76.75,0,0,1-23.32,30.4c9.74,7.29,15.42,17.23,17.12,29.82,1.64,12.11-.45,24.32-6.49,36.6a76.22,76.22,0,0,1-28,31C148.26,269.52,132.8,274,115.38,274h-89L71.84,59.8ZM98.11,188.51l-8,37.34h35.43c4.52,0,8.54-2,12.1-5.91A27.08,27.08,0,0,0,144,207.1c1.08-5,.77-9.24-.89-12.69-1.89-3.93-5.07-5.9-9.59-5.9Z"/><path class="cls-48" d="M115.57,108.28l-8,37.34h26.57c4.52,0,8.65-1.92,12.25-5.9a27,27,0,0,0,6.2-12.84c1.08-5,.9-9.28-.74-12.7-1.9-4-5.21-5.9-9.74-5.9Zm36.76-48.13c16.23,0,29.31,3.74,39.12,11.37,8.79,6.84,14.17,16.13,16.09,27.75,1.82,11,.33,22.43-4.58,34.1a76.87,76.87,0,0,1-23.32,30.41c9.74,7.29,15.41,17.23,17.12,29.82,1.64,12.11-.45,24.33-6.5,36.61a76.15,76.15,0,0,1-28,31c-13.63,8.7-29.08,13.14-46.5,13.14h-89L72.17,60.15ZM98.44,188.88l-8,37.35H125.9c4.53,0,8.55-2,12.11-5.91a27,27,0,0,0,6.34-12.84c1.09-5,.78-9.25-.88-12.7-1.89-3.93-5.07-5.9-9.6-5.9Z"/><path class="cls-49" d="M115.9,108.64l-8,37.35H134.5c4.53,0,8.66-1.93,12.26-5.91a27,27,0,0,0,6.2-12.84c1.08-5,.9-9.28-.74-12.7-1.9-4-5.22-5.9-9.74-5.9ZM152.66,60.5c16.25,0,29.33,3.74,39.13,11.37C200.59,78.72,206,88,207.88,99.63c1.82,11,.34,22.43-4.57,34.1A76.86,76.86,0,0,1,180,164.15c9.74,7.29,15.42,17.23,17.13,29.82,1.64,12.12-.46,24.34-6.5,36.62a76.34,76.34,0,0,1-28.05,31c-13.63,8.69-29.09,13.14-46.51,13.14H27L72.49,60.5ZM98.77,189.25l-8,37.35h35.44c4.52,0,8.54-2,12.1-5.9a27,27,0,0,0,6.35-12.85c1.08-5,.77-9.24-.88-12.69-1.89-3.93-5.07-5.91-9.6-5.91Z"/><path class="cls-50" d="M116.23,109l-8,37.36h26.58c4.53,0,8.66-1.92,12.26-5.9a27,27,0,0,0,6.2-12.85c1.08-5,.9-9.28-.74-12.7-1.9-4-5.22-5.91-9.74-5.91ZM153,60.85c16.25,0,29.33,3.74,39.14,11.38,8.79,6.84,14.17,16.13,16.09,27.76,1.82,11,.34,22.43-4.58,34.11a76.82,76.82,0,0,1-23.33,30.42c9.75,7.28,15.43,17.23,17.13,29.83,1.64,12.11-.45,24.33-6.49,36.62a76.23,76.23,0,0,1-28.06,31c-13.63,8.7-29.09,13.14-46.52,13.14h-89L72.82,60.85ZM99.11,189.62l-8,37.36h35.44c4.53,0,8.55-2,12.11-5.9A27,27,0,0,0,145,208.23c1.08-5,.77-9.25-.89-12.7-1.88-3.93-5.07-5.91-9.59-5.91Z"/><path class="cls-51" d="M116.57,109.35l-8,37.37h26.59c4.53,0,8.66-1.93,12.26-5.91a27.11,27.11,0,0,0,6.2-12.85c1.08-5,.9-9.28-.74-12.7-1.9-4-5.22-5.91-9.75-5.91Zm36.77-48.14c16.25,0,29.34,3.74,39.14,11.37,8.8,6.84,14.18,16.14,16.1,27.76,1.82,11,.34,22.44-4.58,34.12a77,77,0,0,1-23.33,30.43c9.74,7.28,15.42,17.23,17.13,29.83,1.64,12.12-.45,24.34-6.5,36.63a76.23,76.23,0,0,1-28.06,31c-13.63,8.7-29.1,13.15-46.52,13.15H27.66L73.15,61.21ZM99.44,190l-8,37.37h35.45q6.78,0,12.11-5.91a27.16,27.16,0,0,0,6.35-12.85c1.08-5,.77-9.24-.89-12.7-1.89-3.93-5.07-5.91-9.6-5.91Z"/><path class="cls-52" d="M116.9,109.71l-8,37.37h26.59c4.53,0,8.66-1.92,12.26-5.9A27.16,27.16,0,0,0,154,128.32c1.08-5,.9-9.28-.74-12.7-1.9-4-5.22-5.91-9.75-5.91Zm36.78-48.15c16.25,0,29.34,3.74,39.15,11.37,8.8,6.85,14.18,16.14,16.1,27.77,1.82,11,.33,22.44-4.58,34.12A76.89,76.89,0,0,1,181,165.25c9.75,7.29,15.43,17.24,17.14,29.84,1.64,12.12-.46,24.35-6.5,36.64a76.34,76.34,0,0,1-28.07,31c-13.63,8.7-29.1,13.14-46.53,13.14H28L73.47,61.56ZM99.77,190.37l-8,37.37h35.45c4.53,0,8.55-2,12.11-5.91A27.08,27.08,0,0,0,145.71,209c1.08-5,.77-9.25-.89-12.71-1.89-3.93-5.07-5.9-9.6-5.9Z"/><path class="cls-53" d="M117.23,110.07l-8,37.38h26.59c4.53,0,8.66-1.93,12.26-5.91a27.13,27.13,0,0,0,6.21-12.85c1.08-5,.9-9.29-.74-12.71-1.9-4-5.22-5.91-9.75-5.91ZM154,61.91c16.25,0,29.34,3.74,39.15,11.37,8.8,6.85,14.19,16.15,16.11,27.78,1.82,11,.33,22.44-4.58,34.13a76.92,76.92,0,0,1-23.35,30.43c9.76,7.29,15.43,17.24,17.14,29.85,1.64,12.12-.45,24.34-6.5,36.64a76.27,76.27,0,0,1-28.07,31c-13.63,8.71-29.1,13.15-46.54,13.15H28.29L73.8,61.91ZM100.1,190.74l-8,37.38h35.46c4.53,0,8.55-2,12.11-5.91A27,27,0,0,0,146,209.35c1.09-5,.78-9.25-.88-12.7-1.89-3.93-5.08-5.91-9.61-5.91Z"/><path class="cls-54" d="M117.57,110.43l-8,37.38h26.6c4.53,0,8.66-1.93,12.26-5.91a27.13,27.13,0,0,0,6.21-12.85c1.08-5,.89-9.29-.74-12.71-1.9-4-5.22-5.91-9.75-5.91Zm36.79-48.17c16.26,0,29.35,3.74,39.16,11.38,8.8,6.85,14.19,16.15,16.11,27.78,1.82,11,.33,22.45-4.58,34.13A77,77,0,0,1,181.7,166c9.75,7.29,15.43,17.24,17.14,29.85,1.64,12.12-.45,24.35-6.5,36.64a76.29,76.29,0,0,1-28.08,31c-13.63,8.7-29.11,13.15-46.54,13.15H28.61L74.13,62.26ZM100.43,191.11l-8,37.38h35.46q6.79,0,12.12-5.91a27,27,0,0,0,6.35-12.85c1.09-5,.78-9.25-.88-12.71-1.89-3.93-5.08-5.91-9.61-5.91Z"/><path class="cls-55" d="M117.9,110.79l-8,37.39h26.6c4.53,0,8.67-1.93,12.27-5.91A27.16,27.16,0,0,0,155,129.41c1.08-5,.89-9.29-.74-12.71-1.9-4-5.23-5.91-9.76-5.91Zm36.8-48.18c16.26,0,29.35,3.74,39.17,11.38,8.8,6.85,14.18,16.15,16.1,27.78,1.83,11,.34,22.46-4.58,34.14A77,77,0,0,1,182,166.36c9.76,7.29,15.44,17.25,17.15,29.85,1.64,12.12-.46,24.36-6.51,36.65a76.29,76.29,0,0,1-28.08,31c-13.63,8.71-29.11,13.15-46.55,13.15H28.93L74.45,62.61ZM100.76,191.48l-8,37.39h35.47c4.53,0,8.55-2,12.12-5.91a27.06,27.06,0,0,0,6.35-12.86c1.08-5,.77-9.25-.89-12.71-1.89-3.93-5.07-5.91-9.6-5.91Z"/><path class="cls-56" d="M118.23,111.15l-8,37.4h26.61c4.53,0,8.66-1.94,12.27-5.92a27.12,27.12,0,0,0,6.21-12.86c1.08-5,.89-9.29-.74-12.71-1.9-4-5.23-5.91-9.76-5.91ZM155,63c16.26,0,29.36,3.74,39.17,11.38C203,81.2,208.4,90.5,210.32,102.13c1.83,11,.34,22.46-4.58,34.15a77,77,0,0,1-23.35,30.45c9.75,7.29,15.43,17.25,17.14,29.85,1.65,12.13-.45,24.37-6.5,36.66a76.31,76.31,0,0,1-28.09,31c-13.64,8.71-29.12,13.16-46.56,13.16H29.25L74.78,63ZM101.09,191.85l-8,37.4h35.47q6.79,0,12.12-5.91a27.12,27.12,0,0,0,6.36-12.86c1.08-5,.77-9.26-.89-12.71-1.89-3.94-5.07-5.92-9.61-5.92Z"/><path class="cls-57" d="M118.57,111.51l-8,37.4H137.2c4.53,0,8.66-1.93,12.27-5.91a27.2,27.2,0,0,0,6.21-12.87c1.08-5,.89-9.29-.74-12.71-1.91-4-5.23-5.91-9.76-5.91Zm36.81-48.2c16.26,0,29.36,3.75,39.18,11.39,8.8,6.85,14.19,16.15,16.11,27.79,1.82,11,.34,22.46-4.58,34.15a76.93,76.93,0,0,1-23.36,30.45c9.76,7.3,15.44,17.26,17.15,29.87,1.64,12.12-.45,24.36-6.51,36.66a76.2,76.2,0,0,1-28.09,31.05c-13.64,8.71-29.12,13.15-46.56,13.15H29.57L75.1,63.31Zm-54,128.92-8,37.4h35.48q6.79,0,12.12-5.91a27.15,27.15,0,0,0,6.36-12.87c1.08-5,.77-9.25-.89-12.71-1.89-3.93-5.08-5.91-9.61-5.91Z"/><path class="cls-58" d="M118.9,111.87l-8,37.41h26.61c4.54,0,8.67-1.94,12.27-5.92A27.13,27.13,0,0,0,156,130.5c1.08-5,.89-9.3-.74-12.72-1.91-4-5.23-5.91-9.76-5.91Zm36.82-48.21c16.26,0,29.36,3.75,39.18,11.39,8.81,6.85,14.2,16.16,16.12,27.8,1.82,11,.33,22.46-4.58,34.15a77.06,77.06,0,0,1-23.37,30.46c9.76,7.3,15.45,17.26,17.16,29.87,1.64,12.13-.46,24.37-6.51,36.67a76.34,76.34,0,0,1-28.09,31.05c-13.65,8.71-29.13,13.16-46.58,13.16H29.89L75.43,63.66Zm-54,128.94-8,37.41h35.49c4.53,0,8.56-2,12.13-5.92a27,27,0,0,0,6.35-12.86c1.09-5,.78-9.26-.88-12.72-1.89-3.93-5.08-5.91-9.61-5.91Z"/><path class="cls-59" d="M119.23,112.23l-8,37.41h26.62c4.53,0,8.67-1.93,12.27-5.92a27,27,0,0,0,6.21-12.86c1.09-5,.9-9.3-.74-12.72-1.9-4-5.22-5.91-9.76-5.91ZM156.06,64c16.27,0,29.37,3.75,39.19,11.39,8.81,6.86,14.2,16.16,16.12,27.8,1.82,11,.33,22.47-4.59,34.17a76.94,76.94,0,0,1-23.36,30.46c9.76,7.3,15.44,17.26,17.15,29.87,1.65,12.13-.45,24.38-6.5,36.68A76.46,76.46,0,0,1,166,265.44c-13.65,8.71-29.14,13.16-46.59,13.16H30.21L75.76,64Zm-54,129-8,37.42h35.5c4.53,0,8.56-2,12.12-5.92a27,27,0,0,0,6.36-12.87c1.09-5,.78-9.25-.89-12.71-1.88-3.94-5.07-5.92-9.61-5.92Z"/><path class="cls-60" d="M119.57,112.58l-8,37.43H138.2c4.54,0,8.68-1.94,12.28-5.92a27.1,27.1,0,0,0,6.21-12.87c1.09-5,.9-9.3-.74-12.72-1.9-4-5.22-5.92-9.76-5.92ZM156.4,64.36c16.27,0,29.37,3.75,39.19,11.39,8.81,6.86,14.2,16.17,16.13,27.81,1.82,11,.33,22.47-4.59,34.17a77.09,77.09,0,0,1-23.37,30.47c9.76,7.3,15.45,17.26,17.16,29.88,1.64,12.13-.45,24.37-6.51,36.68a76.39,76.39,0,0,1-28.1,31.06C152.66,274.53,137.17,279,119.72,279H30.53L76.08,64.36Zm-54,129-8,37.42h35.5c4.54,0,8.57-2,12.13-5.91A27.11,27.11,0,0,0,148.41,212c1.08-5,.77-9.26-.89-12.72-1.89-3.94-5.08-5.92-9.61-5.92Z"/><path class="cls-61" d="M119.9,112.94l-8,37.43h26.63c4.54,0,8.67-1.93,12.28-5.92A27.06,27.06,0,0,0,157,131.58c1.09-5,.9-9.3-.74-12.72-1.9-4-5.23-5.92-9.76-5.92Zm36.84-48.22c16.27,0,29.38,3.74,39.2,11.39,8.81,6.86,14.2,16.16,16.12,27.81,1.83,11,.34,22.47-4.58,34.17a77.12,77.12,0,0,1-23.37,30.48c9.76,7.3,15.45,17.26,17.16,29.88,1.64,12.13-.46,24.38-6.51,36.69a76.35,76.35,0,0,1-28.11,31.06c-13.65,8.72-29.14,13.17-46.6,13.17H30.84L76.41,64.72Zm-54,129-8,37.43h35.51c4.53,0,8.56-2,12.13-5.91a27.2,27.2,0,0,0,6.36-12.87c1.08-5,.77-9.27-.89-12.73a9.86,9.86,0,0,0-9.61-5.92Z"/><path class="cls-62" d="M120.23,113.3l-8,37.44h26.64c4.53,0,8.67-1.94,12.28-5.92a27.14,27.14,0,0,0,6.21-12.88c1.09-5,.9-9.29-.74-12.72-1.9-4-5.23-5.92-9.76-5.92Zm36.85-48.23c16.27,0,29.38,3.74,39.21,11.39,8.81,6.86,14.2,16.17,16.12,27.82,1.83,11,.34,22.48-4.58,34.17a77.08,77.08,0,0,1-23.38,30.48c9.76,7.31,15.45,17.27,17.16,29.89,1.65,12.14-.45,24.39-6.51,36.7A76.44,76.44,0,0,1,167,266.59c-13.65,8.71-29.15,13.17-46.61,13.17H31.16L76.73,65.07Zm-54,129-8,37.43h35.51c4.54,0,8.57-2,12.13-5.92a27,27,0,0,0,6.37-12.87c1.08-5,.77-9.26-.89-12.72-1.89-3.94-5.08-5.92-9.62-5.92Z"/><path class="cls-63" d="M120.57,113.66l-8,37.44h26.63c4.54,0,8.68-1.93,12.29-5.92a27.1,27.1,0,0,0,6.21-12.87c1.09-5,.9-9.3-.74-12.73-1.9-4-5.23-5.92-9.77-5.92Zm36.85-48.24c16.27,0,29.39,3.75,39.21,11.39,8.82,6.86,14.21,16.18,16.13,27.82,1.83,11.05.34,22.49-4.59,34.19a77,77,0,0,1-23.38,30.48c9.77,7.3,15.46,17.27,17.17,29.89,1.64,12.14-.45,24.39-6.51,36.7A76.36,76.36,0,0,1,167.33,267c-13.65,8.72-29.15,13.17-46.61,13.17H31.48L77.06,65.42Zm-54,129-8,37.44h35.52c4.53,0,8.56-2,12.13-5.92a27.12,27.12,0,0,0,6.37-12.87c1.08-5,.77-9.27-.89-12.73q-2.83-5.91-9.62-5.92Z"/><path class="cls-64" d="M120.9,114l-8,37.45h26.64c4.54,0,8.68-1.94,12.28-5.92a27.15,27.15,0,0,0,6.22-12.88c1.09-5,.9-9.3-.74-12.73-1.9-4-5.23-5.92-9.77-5.92Zm36.85-48.25c16.29,0,29.4,3.75,39.23,11.4C205.79,84,211.19,93.34,213.11,105c1.82,11.05.34,22.49-4.59,34.19a77.18,77.18,0,0,1-23.38,30.49c9.76,7.3,15.45,17.27,17.17,29.9,1.64,12.14-.46,24.39-6.52,36.7a76.44,76.44,0,0,1-28.12,31.09c-13.66,8.72-29.16,13.17-46.62,13.17H31.8L77.39,65.77Zm-54,129.06-8,37.45h35.52c4.54,0,8.57-2,12.14-5.92a27.1,27.1,0,0,0,6.36-12.88c1.09-5,.78-9.27-.89-12.73-1.89-3.94-5.08-5.92-9.62-5.92Z"/><path class="cls-65" d="M121.23,114.38l-8,37.45h26.65c4.53,0,8.67-1.93,12.28-5.92A27.15,27.15,0,0,0,158.39,133c1.09-5,.9-9.3-.74-12.73-1.9-4-5.23-5.92-9.77-5.92Zm36.86-48.26c16.29,0,29.4,3.75,39.23,11.4,8.82,6.86,14.21,16.18,16.14,27.83,1.82,11,.33,22.49-4.59,34.19A77.07,77.07,0,0,1,185.48,170c9.77,7.3,15.46,17.27,17.17,29.9,1.65,12.14-.45,24.4-6.51,36.71A76.41,76.41,0,0,1,168,267.74c-13.66,8.72-29.16,13.17-46.63,13.17H32.12L77.71,66.12Zm-54,129.08-8,37.46H131.6c4.54,0,8.57-2,12.14-5.93a27.11,27.11,0,0,0,6.36-12.87c1.09-5,.78-9.27-.89-12.74-1.89-3.93-5.08-5.92-9.62-5.92Z"/><path class="cls-66" d="M121.57,114.74l-8,37.46h26.65c4.54,0,8.68-1.94,12.29-5.93a27.11,27.11,0,0,0,6.22-12.88c1.08-5,.9-9.3-.74-12.73-1.91-4-5.23-5.92-9.77-5.92Zm36.86-48.27c16.29,0,29.41,3.75,39.24,11.4,8.82,6.87,14.21,16.18,16.14,27.84,1.82,11,.33,22.49-4.59,34.2a77.07,77.07,0,0,1-23.4,30.5c9.78,7.3,15.47,17.27,17.18,29.9,1.64,12.15-.46,24.4-6.52,36.72a76.41,76.41,0,0,1-28.13,31.09c-13.66,8.73-29.16,13.18-46.63,13.18H32.44L78,66.47Zm-54,129.11L96.4,233h35.53c4.54,0,8.57-2,12.14-5.92a27.07,27.07,0,0,0,6.37-12.88c1.08-5,.77-9.27-.89-12.73-1.89-3.94-5.08-5.92-9.62-5.92Z"/><path class="cls-67" d="M121.9,115.1l-8,37.46h26.66c4.54,0,8.68-1.93,12.29-5.92a27.14,27.14,0,0,0,6.22-12.89c1.08-5,.9-9.3-.74-12.73-1.91-4-5.23-5.92-9.77-5.92Zm36.87-48.28c16.29,0,29.41,3.75,39.24,11.4,8.83,6.87,14.22,16.19,16.15,27.84,1.82,11,.33,22.5-4.6,34.21a77.07,77.07,0,0,1-23.39,30.5c9.77,7.31,15.46,17.29,17.18,29.92,1.64,12.14-.46,24.4-6.52,36.72a76.46,76.46,0,0,1-28.14,31.1c-13.66,8.72-29.17,13.18-46.64,13.18H32.76L78.37,66.82ZM104.72,196l-8,37.46h35.54c4.54,0,8.57-2,12.14-5.92a27.2,27.2,0,0,0,6.37-12.88c1.08-5,.77-9.28-.89-12.74-1.89-3.94-5.09-5.92-9.63-5.92Z"/><path class="cls-68" d="M122.23,115.46l-8,37.47H140.9c4.54,0,8.68-1.94,12.29-5.93a27.24,27.24,0,0,0,6.22-12.88c1.08-5,.9-9.31-.74-12.74-1.91-4-5.24-5.92-9.78-5.92Zm36.88-48.29c16.29,0,29.42,3.75,39.25,11.41,8.82,6.86,14.22,16.18,16.14,27.84,1.83,11,.34,22.5-4.59,34.21a77,77,0,0,1-23.4,30.51c9.78,7.31,15.47,17.29,17.18,29.92,1.65,12.15-.45,24.41-6.51,36.73A76.46,76.46,0,0,1,169,268.89c-13.67,8.73-29.18,13.18-46.66,13.18H33.08L78.69,67.17ZM105.05,196.32l-8,37.47H132.6c4.54,0,8.58-2,12.15-5.92A27.19,27.19,0,0,0,151.12,215c1.08-5,.77-9.27-.89-12.74-1.9-3.94-5.09-5.92-9.63-5.92Z"/><path class="cls-69" d="M122.57,115.81l-8,37.48h26.66c4.54,0,8.69-1.93,12.3-5.92a27.33,27.33,0,0,0,6.22-12.89c1.08-5,.9-9.31-.74-12.74-1.91-4-5.24-5.93-9.78-5.93Zm36.88-48.29c16.3,0,29.42,3.76,39.26,11.41,8.82,6.87,14.22,16.19,16.14,27.85,1.83,11,.34,22.5-4.59,34.22a77.13,77.13,0,0,1-23.4,30.51c9.77,7.31,15.47,17.29,17.18,29.92,1.65,12.15-.46,24.42-6.52,36.74a76.55,76.55,0,0,1-28.14,31.11c-13.67,8.72-29.18,13.18-46.66,13.18H33.39L79,67.52ZM105.39,196.69l-8,37.48h35.55c4.54,0,8.57-2,12.14-5.93a27,27,0,0,0,6.37-12.88c1.09-5,.78-9.28-.89-12.74-1.89-3.94-5.08-5.93-9.62-5.93Z"/><path class="cls-70" d="M122.9,116.17l-8,37.49h26.67c4.54,0,8.68-1.94,12.29-5.93a27.15,27.15,0,0,0,6.23-12.89c1.08-5,.9-9.31-.74-12.74-1.91-4-5.24-5.93-9.78-5.93Zm36.89-48.29c16.3,0,29.42,3.75,39.26,11.4,8.83,6.87,14.22,16.19,16.15,27.86,1.83,11,.34,22.5-4.59,34.22a77.25,77.25,0,0,1-23.41,30.52c9.78,7.31,15.47,17.29,17.18,29.93,1.65,12.15-.45,24.41-6.51,36.74a76.51,76.51,0,0,1-28.15,31.11c-13.67,8.73-29.19,13.18-46.67,13.18H33.71l45.63-215ZM105.72,197.06l-8,37.49h35.55c4.54,0,8.58-2,12.15-5.93a27.1,27.1,0,0,0,6.37-12.89c1.09-5,.78-9.27-.89-12.74-1.89-3.94-5.09-5.93-9.63-5.93Z"/><path class="cls-71" d="M123.23,116.53l-8,37.49H141.9c4.55,0,8.69-1.93,12.3-5.93a27.15,27.15,0,0,0,6.23-12.89c1.08-5,.9-9.31-.74-12.74-1.91-4-5.24-5.93-9.78-5.93Zm36.9-48.3c16.3,0,29.43,3.75,39.27,11.41,8.82,6.87,14.22,16.19,16.15,27.85,1.83,11.06.33,22.52-4.59,34.23a77.24,77.24,0,0,1-23.42,30.53c9.78,7.31,15.48,17.29,17.19,29.93,1.65,12.15-.45,24.42-6.52,36.75A76.51,76.51,0,0,1,170.06,270c-13.67,8.73-29.19,13.19-46.68,13.19H34l45.64-215ZM106.05,197.44l-8,37.49h35.57c4.54,0,8.58-2,12.15-5.93a27.24,27.24,0,0,0,6.37-12.89c1.08-5,.77-9.28-.89-12.75-1.89-3.94-5.09-5.92-9.63-5.92Z"/><path class="cls-72" d="M123.57,116.89l-8,37.5h26.67c4.54,0,8.69-1.94,12.3-5.93a27.24,27.24,0,0,0,6.23-12.9c1.08-5,.9-9.31-.74-12.74-1.91-4-5.24-5.93-9.79-5.93Zm36.9-48.31c16.3,0,29.43,3.75,39.27,11.41,8.83,6.87,14.23,16.2,16.16,27.86,1.82,11.06.33,22.52-4.6,34.24a77.19,77.19,0,0,1-23.41,30.53c9.78,7.31,15.48,17.29,17.19,29.93,1.65,12.16-.46,24.43-6.52,36.75a76.52,76.52,0,0,1-28.16,31.13c-13.68,8.73-29.2,13.19-46.68,13.19H34.35L80,68.58ZM106.38,197.81l-8,37.49h35.57c4.55,0,8.58-2,12.15-5.92a27.15,27.15,0,0,0,6.38-12.9c1.08-5,.77-9.28-.89-12.74-1.9-4-5.09-5.93-9.64-5.93Z"/><path class="cls-73" d="M123.9,117.25l-8,37.5h26.68c4.54,0,8.69-1.94,12.3-5.93a27.15,27.15,0,0,0,6.23-12.89c1.08-5,.9-9.32-.75-12.75-1.9-4-5.23-5.93-9.78-5.93Zm36.91-48.32c16.3,0,29.44,3.75,39.28,11.41,8.83,6.87,14.23,16.2,16.16,27.87,1.82,11.06.33,22.52-4.6,34.24A77.24,77.24,0,0,1,188.23,173c9.78,7.32,15.48,17.3,17.19,29.94,1.65,12.16-.45,24.43-6.52,36.76a76.45,76.45,0,0,1-28.16,31.13c-13.68,8.73-29.2,13.19-46.69,13.19H34.67L80.32,68.93Zm-54.1,129.25-8,37.5h35.58c4.54,0,8.58-2,12.15-5.93a27.11,27.11,0,0,0,6.38-12.89c1.08-5,.77-9.28-.89-12.75-1.9-3.94-5.09-5.93-9.64-5.93Z"/><path class="cls-74" d="M124.23,117.61l-8,37.51h26.68c4.55,0,8.69-1.94,12.31-5.93a27.24,27.24,0,0,0,6.23-12.9c1.08-5,.9-9.32-.75-12.75-1.9-4-5.24-5.93-9.78-5.93Zm36.92-48.33c16.31,0,29.44,3.75,39.28,11.42,8.84,6.87,14.24,16.2,16.16,27.87,1.83,11.06.34,22.52-4.59,34.24a77.2,77.2,0,0,1-23.43,30.54c9.79,7.32,15.49,17.3,17.2,30,1.65,12.16-.45,24.43-6.52,36.76a76.56,76.56,0,0,1-28.17,31.14c-13.68,8.73-29.2,13.19-46.7,13.19H35L80.65,69.28ZM107,198.55l-8,37.51h35.58c4.55,0,8.59-2,12.16-5.93a27.14,27.14,0,0,0,6.37-12.9c1.09-5,.78-9.28-.89-12.75-1.89-3.94-5.09-5.93-9.63-5.93Z"/><path class="cls-75" d="M124.57,118l-8,37.51h26.69c4.55,0,8.69-1.94,12.31-5.93a27.13,27.13,0,0,0,6.22-12.9c1.09-5,.9-9.32-.74-12.75-1.9-4-5.24-5.93-9.78-5.93Zm36.92-48.34c16.31,0,29.44,3.76,39.29,11.42,8.83,6.87,14.23,16.2,16.16,27.87,1.83,11.07.34,22.53-4.59,34.25a77.25,77.25,0,0,1-23.43,30.55c9.78,7.32,15.48,17.3,17.2,29.95,1.65,12.16-.46,24.44-6.53,36.77a76.56,76.56,0,0,1-28.17,31.14c-13.68,8.73-29.21,13.2-46.7,13.2H35.31L81,69.63ZM107.37,198.92l-8,37.52H135c4.54,0,8.58-2,12.16-5.93a27.23,27.23,0,0,0,6.37-12.9c1.09-5,.78-9.29-.89-12.75-1.89-4-5.09-5.94-9.64-5.94Z"/><path class="cls-76" d="M124.9,118.33l-8,37.52h26.7c4.54,0,8.69-1.94,12.3-5.94a27,27,0,0,0,6.23-12.9c1.09-5,.9-9.32-.74-12.75-1.91-4-5.24-5.93-9.79-5.93ZM161.83,70c16.31,0,29.45,3.76,39.3,11.42,8.83,6.88,14.23,16.21,16.16,27.88,1.83,11.07.34,22.53-4.6,34.26a77.3,77.3,0,0,1-23.43,30.55c9.79,7.31,15.49,17.3,17.2,29.95,1.65,12.17-.45,24.44-6.52,36.78A76.53,76.53,0,0,1,171.76,272c-13.68,8.74-29.21,13.2-46.71,13.2H35.63L81.3,70ZM107.7,199.3l-8,37.52h35.59c4.55,0,8.59-2,12.16-5.94a27.15,27.15,0,0,0,6.38-12.9c1.09-5,.78-9.28-.89-12.75-1.9-3.95-5.09-5.93-9.64-5.93Z"/><path class="cls-77" d="M125.23,118.69l-8,37.52h26.69c4.55,0,8.7-1.94,12.31-5.93a27.23,27.23,0,0,0,6.23-12.91c1.09-5,.9-9.32-.74-12.75-1.91-4-5.24-5.93-9.79-5.93Zm36.94-48.36c16.31,0,29.45,3.76,39.3,11.42,8.84,6.88,14.24,16.21,16.17,27.89,1.83,11.07.33,22.53-4.6,34.26a77.26,77.26,0,0,1-23.43,30.56c9.79,7.31,15.49,17.3,17.2,30,1.65,12.16-.45,24.44-6.52,36.78a76.58,76.58,0,0,1-28.19,31.15c-13.68,8.74-29.21,13.2-46.72,13.2H35.94L81.63,70.33ZM108,199.67l-8,37.52h35.6c4.54,0,8.58-2,12.16-5.93a27.15,27.15,0,0,0,6.38-12.9c1.08-5.05.77-9.29-.89-12.76a9.9,9.9,0,0,0-9.64-5.93Z"/><path class="cls-78" d="M125.57,119.05l-8,37.53h26.7c4.55,0,8.7-1.94,12.31-5.94a27.19,27.19,0,0,0,6.23-12.9c1.09-5.05.9-9.33-.74-12.76-1.91-4-5.24-5.93-9.79-5.93Zm36.94-48.37c16.31,0,29.46,3.76,39.31,11.43C210.65,89,216.06,98.32,218,110c1.83,11.06.33,22.53-4.6,34.26A77.22,77.22,0,0,1,190,174.82c9.79,7.32,15.49,17.32,17.21,30,1.65,12.17-.46,24.45-6.53,36.79a76.58,76.58,0,0,1-28.19,31.15c-13.68,8.74-29.22,13.2-46.72,13.2H36.26L82,70.68ZM108.36,200l-8,37.53H136c4.55,0,8.59-2,12.17-5.93a27.14,27.14,0,0,0,6.38-12.91c1.08-5,.77-9.28-.9-12.75C151.71,202,148.51,200,144,200Z"/><path class="cls-79" d="M125.9,119.4l-8,37.54H144.6c4.54,0,8.69-1.94,12.31-5.93a27.27,27.27,0,0,0,6.23-12.91c1.09-5,.9-9.33-.74-12.76-1.91-4-5.24-5.94-9.79-5.94ZM162.84,71c16.33,0,29.47,3.75,39.32,11.42,8.84,6.88,14.25,16.21,16.18,27.89,1.82,11.07.33,22.54-4.6,34.28a77.31,77.31,0,0,1-23.45,30.56c9.8,7.32,15.5,17.32,17.21,30,1.65,12.17-.45,24.45-6.52,36.8a76.67,76.67,0,0,1-28.19,31.16c-13.69,8.74-29.23,13.2-46.74,13.2H36.58L82.28,71ZM108.69,200.41l-8,37.54h35.61c4.55,0,8.59-2,12.16-5.93a27.23,27.23,0,0,0,6.38-12.91c1.09-5.05.78-9.29-.89-12.76-1.89-3.95-5.09-5.94-9.64-5.94Z"/><path class="cls-80" d="M126.23,119.76l-8,37.55h26.71c4.55,0,8.7-1.94,12.32-5.94a27.23,27.23,0,0,0,6.23-12.91c1.09-5,.9-9.33-.74-12.76-1.91-4-5.25-5.94-9.79-5.94Zm37-48.37c16.33,0,29.48,3.75,39.33,11.42,8.84,6.88,14.24,16.22,16.17,27.9,1.83,11.07.34,22.55-4.6,34.28a77.32,77.32,0,0,1-23.44,30.57c9.79,7.32,15.5,17.32,17.21,30,1.65,12.18-.45,24.46-6.53,36.81a76.6,76.6,0,0,1-28.19,31.16c-13.7,8.74-29.24,13.21-46.75,13.21H36.9L82.61,71.39ZM109,200.79l-8,37.54h35.61c4.55,0,8.59-2,12.17-5.94a27.14,27.14,0,0,0,6.38-12.91c1.09-5,.78-9.29-.89-12.76-1.9-3.95-5.1-5.93-9.64-5.93Z"/><path class="cls-81" d="M126.57,120.12l-8,37.55h26.72c4.55,0,8.7-1.94,12.32-5.94a27.18,27.18,0,0,0,6.23-12.91c1.09-5,.9-9.33-.74-12.76-1.91-4-5.25-5.94-9.8-5.94Zm37-48.38c16.33,0,29.48,3.76,39.33,11.43,8.85,6.88,14.25,16.22,16.18,27.9,1.83,11.07.34,22.55-4.6,34.28A77.21,77.21,0,0,1,191,175.93c9.8,7.32,15.5,17.32,17.22,30,1.65,12.17-.46,24.46-6.53,36.8a76.59,76.59,0,0,1-28.2,31.17c-13.7,8.75-29.24,13.21-46.75,13.21H37.22L82.93,71.74ZM109.35,201.16l-8,37.55H137c4.55,0,8.59-2,12.17-5.94a27.18,27.18,0,0,0,6.38-12.91c1.09-5.05.78-9.29-.89-12.77-1.9-3.94-5.1-5.93-9.65-5.93Z"/><path class="cls-82" d="M126.9,120.48l-8,37.56H145.6c4.56,0,8.71-1.94,12.33-5.94a27.26,27.26,0,0,0,6.23-12.92c1.09-5,.9-9.33-.74-12.76-1.91-4-5.25-5.94-9.8-5.94Zm37-48.39c16.33,0,29.48,3.76,39.34,11.43,8.84,6.88,14.25,16.22,16.18,27.91,1.83,11.07.34,22.55-4.6,34.29a77.54,77.54,0,0,1-23.45,30.58c9.79,7.32,15.5,17.32,17.21,30,1.65,12.18-.45,24.47-6.53,36.81a76.68,76.68,0,0,1-28.2,31.18c-13.7,8.74-29.24,13.21-46.76,13.21H37.54L83.26,72.09ZM109.68,201.53l-8,37.56h35.62c4.55,0,8.6-2,12.17-5.94a27.14,27.14,0,0,0,6.39-12.92c1.09-5,.77-9.29-.89-12.76-1.9-3.95-5.1-5.94-9.65-5.94Z"/><path class="cls-83" d="M127.23,120.84l-8,37.56h26.72c4.55,0,8.7-1.94,12.32-5.94a27.19,27.19,0,0,0,6.24-12.91c1.09-5.05.9-9.33-.74-12.77-1.91-4-5.25-5.94-9.8-5.94Zm37-48.4c16.33,0,29.49,3.76,39.35,11.43,8.84,6.88,14.25,16.23,16.18,27.91,1.83,11.08.34,22.56-4.6,34.3a77.33,77.33,0,0,1-23.46,30.58c9.8,7.33,15.5,17.33,17.22,30,1.65,12.18-.45,24.47-6.53,36.82a76.57,76.57,0,0,1-28.21,31.18c-13.7,8.75-29.25,13.21-46.77,13.21H37.86L83.59,72.44ZM110,201.9l-8,37.56h35.63c4.55,0,8.59-2,12.17-5.93a27.23,27.23,0,0,0,6.39-12.92c1.08-5.05.77-9.3-.9-12.77-1.89-4-5.09-5.94-9.65-5.94Z"/><path class="cls-84" d="M127.57,121.2l-8,37.57h26.73c4.55,0,8.7-1.94,12.32-5.94a27.18,27.18,0,0,0,6.24-12.92c1.09-5,.9-9.33-.74-12.77-1.91-4-5.25-5.94-9.8-5.94Zm37-48.41c16.34,0,29.49,3.76,39.35,11.43,8.85,6.89,14.26,16.23,16.19,27.92,1.83,11.08.33,22.56-4.61,34.3A77.27,77.27,0,0,1,192,177c9.8,7.33,15.51,17.33,17.23,30,1.65,12.18-.46,24.47-6.54,36.82A76.66,76.66,0,0,1,174.49,275c-13.7,8.74-29.25,13.21-46.77,13.21H38.18L83.91,72.79Zm-54.2,129.48-8,37.57H138q6.82,0,12.18-5.94A27.17,27.17,0,0,0,156.52,221c1.09-5,.78-9.29-.89-12.77-1.9-4-5.1-5.94-9.65-5.94Z"/><path class="cls-85" d="M127.9,121.56l-8,37.57h26.73c4.56,0,8.71-1.94,12.33-5.94a27.18,27.18,0,0,0,6.24-12.92c1.09-5.05.9-9.33-.74-12.77-1.92-4-5.25-5.94-9.81-5.94Zm37-48.42c16.34,0,29.5,3.76,39.36,11.44,8.84,6.88,14.25,16.23,16.19,27.92,1.83,11.08.33,22.56-4.61,34.3a77.39,77.39,0,0,1-23.46,30.6c9.8,7.33,15.51,17.33,17.22,30,1.66,12.18-.45,24.48-6.53,36.83a76.68,76.68,0,0,1-28.22,31.19c-13.7,8.75-29.26,13.22-46.78,13.22H38.5L84.24,73.14ZM110.67,202.65l-8,37.57H138.3q6.82,0,12.18-5.94a27.22,27.22,0,0,0,6.38-12.92c1.09-5.05.78-9.3-.89-12.77-1.9-4-5.1-5.94-9.65-5.94Z"/><path class="cls-86" d="M128.23,121.92l-8,37.58H147c4.55,0,8.71-1.94,12.33-5.94a27.36,27.36,0,0,0,6.24-12.93c1.09-5,.9-9.33-.75-12.77-1.91-4-5.24-5.94-9.8-5.94Zm37-48.43c16.34,0,29.5,3.76,39.36,11.44,8.85,6.89,14.26,16.23,16.19,27.93,1.84,11.08.34,22.56-4.6,34.31a77.39,77.39,0,0,1-23.47,30.6c9.8,7.33,15.51,17.33,17.23,30,1.65,12.19-.45,24.48-6.53,36.84a76.78,76.78,0,0,1-28.23,31.19c-13.7,8.75-29.26,13.22-46.79,13.22H38.81L84.56,73.49ZM111,203l-8,37.58h35.65c4.56,0,8.6-2,12.18-5.94a27.19,27.19,0,0,0,6.39-12.92c1.09-5.06.78-9.31-.89-12.78-1.9-4-5.1-5.94-9.66-5.94Z"/><path class="cls-87" d="M128.57,122.28l-8,37.58h26.74c4.55,0,8.71-1.94,12.33-5.94A27.26,27.26,0,0,0,165.86,141c1.09-5.05.9-9.33-.75-12.77-1.91-4-5.25-5.94-9.8-5.94Zm37-48.44c16.34,0,29.5,3.77,39.37,11.44,8.85,6.89,14.26,16.24,16.19,27.93,1.83,11.09.34,22.57-4.6,34.32A77.38,77.38,0,0,1,193,178.14c9.81,7.33,15.52,17.33,17.24,30,1.65,12.19-.46,24.49-6.54,36.85a76.67,76.67,0,0,1-28.23,31.2c-13.7,8.75-29.26,13.22-46.79,13.22H39.13L84.89,73.84ZM111.33,203.39l-8,37.59H139c4.55,0,8.6-2,12.18-5.95a27.19,27.19,0,0,0,6.39-12.92c1.09-5.05.77-9.3-.89-12.78-1.9-4-5.11-5.94-9.66-5.94Z"/><path class="cls-88" d="M128.9,122.63l-8,37.6h26.74c4.56,0,8.71-1.94,12.34-5.95a27.27,27.27,0,0,0,6.24-12.92c1.09-5.06.9-9.34-.75-12.78-1.91-4-5.25-6-9.8-6Zm37-48.44c16.34,0,29.51,3.77,39.37,11.45,8.86,6.88,14.27,16.23,16.2,27.93,1.83,11.09.34,22.57-4.61,34.32a77.35,77.35,0,0,1-23.47,30.61q14.7,11,17.23,30c1.66,12.19-.45,24.49-6.53,36.85a76.7,76.7,0,0,1-28.24,31.2c-13.71,8.76-29.27,13.23-46.8,13.23H39.45L85.22,74.19ZM111.66,203.76l-8,37.6H139.3c4.56,0,8.6-2,12.19-6a27.32,27.32,0,0,0,6.39-12.92c1.08-5.06.77-9.31-.9-12.78-1.9-4-5.1-6-9.65-6Z"/><path class="cls-89" d="M129.23,123l-8,37.6H148c4.56,0,8.71-1.94,12.33-5.94a27.37,27.37,0,0,0,6.25-12.93c1.08-5.05.9-9.34-.75-12.78-1.91-4-5.25-6-9.81-6Zm37-48.44c16.35,0,29.51,3.76,39.38,11.44,8.85,6.89,14.27,16.24,16.2,27.94,1.83,11.09.34,22.58-4.61,34.33a77.38,77.38,0,0,1-23.48,30.61c9.81,7.33,15.52,17.34,17.24,30,1.65,12.19-.45,24.49-6.54,36.86A76.83,76.83,0,0,1,176.2,277c-13.72,8.75-29.28,13.22-46.82,13.22H39.77L85.54,74.55ZM112,204.13l-8,37.6h35.67q6.83,0,12.18-5.94a27.18,27.18,0,0,0,6.39-12.93c1.09-5.05.78-9.3-.89-12.78-1.9-4-5.1-6-9.66-6Z"/><path class="cls-90" d="M129.57,123.35l-8,37.61H148.3c4.55,0,8.71-1.94,12.33-6a27.32,27.32,0,0,0,6.25-12.93c1.08-5.05.9-9.34-.75-12.78-1.91-4-5.25-6-9.81-6Zm37-48.45c16.35,0,29.52,3.76,39.39,11.44,8.85,6.89,14.27,16.25,16.2,28,1.83,11.09.33,22.58-4.61,34.33a77.41,77.41,0,0,1-23.48,30.62c9.81,7.33,15.52,17.35,17.24,30,1.65,12.2-.46,24.5-6.54,36.87a76.79,76.79,0,0,1-28.24,31.21c-13.72,8.76-29.28,13.23-46.82,13.23H40.09L85.87,74.9ZM112.33,204.51l-8,37.6H140c4.56,0,8.61-2,12.19-5.94a27.18,27.18,0,0,0,6.39-12.93c1.09-5.06.78-9.31-.89-12.79-1.9-3.95-5.1-5.94-9.66-5.94Z"/><path class="cls-91" d="M129.9,123.71l-8,37.61h26.76c4.56,0,8.72-1.94,12.34-5.94a27.25,27.25,0,0,0,6.24-12.94c1.09-5.05.91-9.34-.74-12.78-1.91-4-5.25-6-9.81-6Zm37-48.46c16.35,0,29.52,3.76,39.39,11.44,8.86,6.9,14.27,16.25,16.21,28,1.83,11.1.33,22.59-4.61,34.34a77.47,77.47,0,0,1-23.49,30.63c9.81,7.33,15.53,17.35,17.24,30,1.66,12.19-.45,24.5-6.54,36.86a76.69,76.69,0,0,1-28.24,31.22C163.16,286.48,147.59,291,130.05,291H40.41L86.19,75.25ZM112.66,204.88l-8,37.61h35.68c4.55,0,8.6-2,12.19-6a27.22,27.22,0,0,0,6.39-12.93c1.09-5.05.78-9.31-.89-12.78-1.9-4-5.11-6-9.67-6Z"/><path class="cls-92" d="M130.23,124.07l-8,37.62H149c4.56,0,8.71-1.95,12.34-5.95a27.25,27.25,0,0,0,6.24-12.94c1.09-5.05.91-9.34-.74-12.78-1.91-4-5.25-6-9.81-6Zm37-48.47c16.35,0,29.53,3.76,39.4,11.45,8.85,6.89,14.27,16.25,16.2,28,1.84,11.09.34,22.59-4.6,34.35A77.56,77.56,0,0,1,194.76,180c9.82,7.33,15.53,17.35,17.25,30,1.65,12.2-.46,24.5-6.54,36.87a76.8,76.8,0,0,1-28.25,31.23c-13.72,8.76-29.29,13.23-46.84,13.23H40.73L86.52,75.6ZM113,205.25l-8,37.62h35.68c4.56,0,8.61-2,12.19-6a27.19,27.19,0,0,0,6.4-12.93c1.09-5.06.78-9.31-.89-12.79-1.9-4-5.11-5.95-9.67-5.95Z"/><path class="cls-93" d="M130.57,124.43l-8,37.62H149.3c4.56,0,8.72-1.94,12.35-6a27.22,27.22,0,0,0,6.24-12.93c1.09-5.06.91-9.35-.74-12.79-1.91-4-5.26-5.95-9.81-5.95ZM167.6,76C184,76,197.13,79.72,207,87.4c8.86,6.89,14.28,16.25,16.21,28,1.84,11.09.34,22.59-4.61,34.35a77.4,77.4,0,0,1-23.49,30.63c9.81,7.34,15.53,17.36,17.25,30,1.65,12.2-.46,24.51-6.55,36.88a76.8,76.8,0,0,1-28.25,31.23c-13.72,8.76-29.3,13.24-46.84,13.24H41.05L86.85,76ZM113.32,205.62l-8,37.63H141c4.56,0,8.61-2,12.19-5.95a27.27,27.27,0,0,0,6.4-12.94c1.09-5.06.77-9.31-.9-12.79-1.9-3.95-5.1-5.95-9.66-5.95Z"/><path class="cls-94" d="M130.9,124.79l-8,37.63h26.77c4.56,0,8.72-1.95,12.35-5.95a27.25,27.25,0,0,0,6.24-12.94c1.09-5.06.91-9.35-.74-12.79-1.91-4-5.26-6-9.82-6Zm37-48.49c16.37,0,29.54,3.77,39.42,11.45,8.86,6.9,14.28,16.26,16.21,28,1.84,11.09.34,22.59-4.61,34.35a77.43,77.43,0,0,1-23.5,30.64c9.82,7.34,15.53,17.36,17.25,30,1.66,12.21-.45,24.52-6.54,36.89a76.78,76.78,0,0,1-28.26,31.24c-13.72,8.76-29.3,13.23-46.85,13.23H41.36L87.17,76.3ZM113.65,206l-8,37.63h35.69c4.56,0,8.61-2,12.2-5.95a27.26,27.26,0,0,0,6.39-12.94c1.09-5.06.78-9.32-.89-12.8-1.9-3.95-5.11-5.94-9.67-5.94Z"/><path class="cls-95" d="M131.23,125.15l-8,37.63H150c4.56,0,8.72-1.94,12.34-5.95a27.22,27.22,0,0,0,6.25-12.94c1.09-5.06.91-9.35-.74-12.79-1.92-4-5.26-5.95-9.82-5.95Zm37-48.5c16.37,0,29.55,3.77,39.43,11.46,8.86,6.89,14.28,16.25,16.21,28,1.83,11.1.34,22.6-4.61,34.37a77.45,77.45,0,0,1-23.51,30.64c9.82,7.34,15.54,17.36,17.26,30,1.65,12.2-.46,24.51-6.55,36.89a76.78,76.78,0,0,1-28.26,31.24c-13.73,8.76-29.3,13.24-46.86,13.24H41.68L87.5,76.65ZM114,206.37,106,244h35.7c4.56,0,8.61-2,12.2-5.95a27.26,27.26,0,0,0,6.39-12.94c1.09-5.06.78-9.31-.89-12.79-1.9-4-5.11-5.95-9.67-5.95Z"/><path class="cls-96" d="M131.57,125.51l-8,37.64h26.78c4.56,0,8.73-2,12.35-6a27.3,27.3,0,0,0,6.25-12.95c1.09-5.06.9-9.35-.74-12.79-1.92-4-5.26-6-9.82-6Zm37-48.51C185,77,198.16,80.77,208,88.46c8.86,6.9,14.28,16.26,16.22,28,1.83,11.1.34,22.6-4.61,34.37a77.58,77.58,0,0,1-23.51,30.65c9.82,7.34,15.54,17.36,17.26,30.05,1.65,12.21-.46,24.52-6.55,36.9a76.74,76.74,0,0,1-28.27,31.24c-13.73,8.77-29.31,13.24-46.86,13.24H42L87.83,77Zm-54.3,129.74-8,37.64H142c4.56,0,8.62-2,12.2-5.95a27.18,27.18,0,0,0,6.4-12.94c1.09-5.06.78-9.32-.89-12.8-1.9-4-5.11-5.95-9.67-5.95Z"/><path class="cls-97" d="M131.9,125.87l-8,37.64h26.78c4.56,0,8.72-1.94,12.35-5.95a27.3,27.3,0,0,0,6.25-12.95c1.09-5.05.9-9.35-.74-12.79-1.92-4-5.26-5.95-9.82-5.95Zm37-48.52c16.37,0,29.56,3.77,39.44,11.46,8.86,6.9,14.28,16.26,16.22,28,1.83,11.1.33,22.61-4.62,34.37a77.42,77.42,0,0,1-23.51,30.66c9.82,7.34,15.54,17.36,17.26,30.05,1.66,12.21-.45,24.53-6.54,36.91A76.86,76.86,0,0,1,178.92,280c-13.73,8.76-29.31,13.24-46.87,13.24H42.32L88.15,77.35ZM114.64,207.11l-8,37.65h35.72c4.56,0,8.61-2,12.2-5.95a27.26,27.26,0,0,0,6.4-12.95c1.09-5.06.78-9.32-.9-12.8-1.9-3.95-5.11-5.95-9.67-5.95Z"/><path class="cls-98" d="M132.23,126.22l-8,37.66H151c4.56,0,8.72-1.95,12.35-6A27.22,27.22,0,0,0,169.59,145c1.09-5.06.9-9.36-.74-12.8-1.92-4-5.26-6-9.83-6Zm37.06-48.51c16.37,0,29.56,3.76,39.44,11.46,8.87,6.9,14.29,16.26,16.23,28,1.83,11.1.33,22.61-4.62,34.37a77.54,77.54,0,0,1-23.51,30.66c9.82,7.35,15.54,17.37,17.26,30.07,1.65,12.21-.46,24.53-6.55,36.91a76.79,76.79,0,0,1-28.28,31.25c-13.73,8.77-29.31,13.25-46.88,13.25H42.64l45.84-216ZM115,207.48l-8,37.66h35.72c4.56,0,8.62-2,12.21-5.95a27.35,27.35,0,0,0,6.4-12.95c1.09-5.06.77-9.32-.9-12.8-1.9-4-5.11-6-9.67-6Z"/><path class="cls-99" d="M132.57,126.58l-8,37.66h26.79c4.57,0,8.73-1.94,12.36-6a27.3,27.3,0,0,0,6.25-12.95c1.09-5.06.9-9.36-.74-12.8-1.92-4-5.27-6-9.83-6Zm37.06-48.52c16.38,0,29.56,3.77,39.45,11.46,8.86,6.9,14.29,16.27,16.22,28,1.84,11.11.34,22.62-4.61,34.39a77.47,77.47,0,0,1-23.52,30.66c9.82,7.35,15.55,17.37,17.27,30.07,1.65,12.21-.46,24.53-6.55,36.92a77,77,0,0,1-28.28,31.26C165.87,289.56,150.28,294,132.72,294H43l45.84-216ZM115.3,207.86l-8,37.66H143c4.56,0,8.62-2,12.2-6a27.21,27.21,0,0,0,6.4-12.95c1.09-5.06.78-9.32-.89-12.8-1.9-4-5.11-5.95-9.67-5.95Z"/><path class="cls-100" d="M132.9,126.94l-8,37.67h26.8c4.56,0,8.73-2,12.36-6a27.3,27.3,0,0,0,6.25-13c1.09-5.06.9-9.36-.75-12.8-1.91-4-5.26-6-9.82-6ZM170,78.41c16.38,0,29.57,3.77,39.45,11.46,8.87,6.9,14.3,16.27,16.23,28,1.84,11.11.34,22.62-4.61,34.39a77.6,77.6,0,0,1-23.53,30.67c9.83,7.35,15.55,17.37,17.27,30.07,1.66,12.22-.45,24.54-6.55,36.92A76.84,76.84,0,0,1,180,281.18c-13.74,8.77-29.33,13.25-46.9,13.25H43.28l45.85-216ZM115.63,208.23l-8,37.66h35.73c4.57,0,8.62-2,12.21-5.95a27.26,27.26,0,0,0,6.4-12.95c1.09-5.06.78-9.32-.89-12.81-1.9-4-5.11-6-9.68-6Z"/><path class="cls-101" d="M133.23,127.3l-8,37.67H152c4.56,0,8.72-1.94,12.35-5.95a27.21,27.21,0,0,0,6.26-13c1.09-5.06.9-9.36-.75-12.8-1.91-4-5.26-6-9.82-6Zm37.08-48.54c16.38,0,29.57,3.77,39.46,11.46,8.87,6.91,14.29,16.28,16.23,28,1.84,11.11.34,22.62-4.62,34.39a77.53,77.53,0,0,1-23.52,30.68c9.82,7.34,15.55,17.37,17.27,30.08,1.66,12.21-.46,24.54-6.55,36.92a76.87,76.87,0,0,1-28.29,31.27c-13.74,8.78-29.34,13.26-46.91,13.26H43.6L89.46,78.76ZM116,208.6l-8,37.67h35.74c4.56,0,8.62-2,12.21-6a27.25,27.25,0,0,0,6.4-13c1.09-5.06.78-9.32-.89-12.8a9.94,9.94,0,0,0-9.68-6Z"/><text class="cls-102" transform="translate(32 295.2)">B</text></g></g></svg>